<?xml version="1.0" standalone="no"?>
<!DOCTYPE svg PUBLIC "-//W3C//DTD SVG 20010904//EN"
 "http://www.w3.org/TR/2001/REC-SVG-20010904/DTD/svg10.dtd">
<svg version="1.0" xmlns="http://www.w3.org/2000/svg"
 width="2480.000000pt" height="2480.000000pt" viewBox="0 0 2480.000000 2480.000000"
 preserveAspectRatio="xMidYMid meet">
<metadata>
Created by potrace 1.14, written by Peter Selinger 2001-2017
</metadata>
<g transform="translate(0.000000,2480.000000) scale(0.100000,-0.100000)"
fill="#000000" stroke="none">
<path d="M20848 17782 c-16 -2 -28 -8 -28 -13 0 -5 -5 -9 -11 -9 -5 0 -7 5 -3
12 5 8 3 8 -7 2 -8 -5 -41 -10 -74 -10 -33 -1 -72 -6 -86 -12 -15 -6 -46 -11
-70 -11 -59 0 -79 -3 -79 -11 0 -4 -19 -6 -42 -6 -24 1 -53 -5 -65 -12 -12 -8
-27 -11 -33 -7 -6 4 -18 1 -27 -6 -8 -7 -35 -14 -60 -14 -25 -1 -48 -6 -51
-12 -4 -6 -19 -9 -34 -7 -16 1 -28 -2 -28 -7 0 -6 -4 -7 -10 -4 -5 3 -10 2
-10 -3 0 -5 -16 -8 -34 -7 -19 1 -33 -2 -30 -7 5 -8 -18 -12 -45 -9 -7 2 -10
-2 -6 -8 5 -10 -22 -16 -47 -12 -5 0 -8 -4 -8 -10 0 -5 -4 -8 -9 -4 -5 3 -12
1 -15 -4 -3 -5 -16 -7 -28 -3 -14 3 -19 2 -14 -6 8 -13 -2 -15 -44 -13 -20 2
-22 0 -10 -8 13 -10 13 -11 0 -12 -8 -1 -21 -1 -28 0 -8 1 -23 -6 -35 -16 -14
-13 -18 -14 -13 -3 4 9 2 8 -7 -2 -8 -10 -23 -18 -35 -18 -11 0 -22 -4 -24
-10 -1 -5 -15 -11 -30 -12 -15 -1 -24 -6 -22 -10 3 -4 -2 -8 -11 -8 -10 0 -13
-5 -9 -12 5 -8 0 -7 -11 2 -11 9 -16 10 -11 3 4 -8 1 -13 -9 -13 -9 0 -30 -9
-46 -21 -16 -11 -29 -18 -29 -14 0 3 -12 -7 -26 -22 -15 -15 -20 -19 -13 -9
14 20 14 20 -21 0 -19 -10 -43 -27 -54 -36 -11 -10 -26 -18 -33 -18 -8 0 -11
-4 -8 -10 3 -5 -1 -10 -11 -10 -9 0 -24 -8 -33 -18 -9 -9 -33 -26 -53 -37 -20
-10 -35 -23 -32 -27 3 -4 0 -8 -6 -8 -15 0 -41 -26 -33 -33 3 -4 -4 -5 -15 -2
-14 2 -19 -1 -16 -10 3 -7 0 -16 -7 -21 -8 -5 -10 -3 -4 7 4 8 -4 1 -17 -15
-14 -17 -30 -26 -36 -22 -7 4 -12 2 -12 -6 0 -7 -16 -24 -35 -37 -19 -13 -35
-29 -35 -36 0 -6 -11 -18 -25 -25 -16 -8 -21 -16 -14 -20 6 -4 2 -10 -11 -13
-12 -3 -19 -10 -16 -16 4 -5 2 -12 -4 -16 -5 -3 -10 -1 -10 5 0 6 -4 9 -10 5
-5 -3 -6 -13 -3 -22 5 -12 2 -15 -10 -10 -11 4 -15 1 -12 -13 3 -14 -1 -18
-15 -15 -14 3 -18 -1 -15 -16 2 -11 -2 -19 -9 -19 -8 0 -20 -8 -27 -17 -10
-11 -10 -14 -1 -9 6 4 12 2 12 -3 0 -6 -9 -11 -20 -11 -13 0 -18 -5 -14 -15 4
-9 -5 -21 -24 -32 -18 -11 -28 -25 -26 -36 2 -14 -2 -18 -15 -14 -14 3 -17 -1
-15 -20 2 -18 -1 -23 -12 -19 -9 3 -12 1 -9 -4 3 -6 2 -10 -3 -10 -5 0 -8 -11
-7 -25 2 -14 0 -23 -5 -20 -4 3 -14 -3 -21 -12 -10 -11 -10 -14 -2 -9 24 14 2
-22 -23 -39 -13 -8 -24 -22 -24 -31 0 -9 -5 -12 -12 -8 -9 5 -8 2 1 -10 13
-15 12 -18 -7 -22 -14 -4 -19 -12 -17 -26 3 -14 0 -18 -11 -14 -9 3 -12 1 -9
-4 3 -6 0 -10 -7 -10 -9 0 -9 -3 2 -10 12 -8 12 -10 1 -10 -8 0 -11 -3 -8 -7
4 -3 -2 -13 -14 -21 -15 -11 -17 -17 -9 -27 9 -10 9 -19 0 -32 -11 -17 -11
-17 -6 2 6 19 6 19 -9 1 -8 -10 -12 -23 -9 -27 3 -5 0 -9 -5 -9 -6 0 -11 -5
-11 -11 0 -5 6 -7 13 -3 7 4 9 3 4 -2 -5 -5 -14 -9 -20 -9 -6 0 -10 -18 -10
-42 0 -24 -3 -41 -7 -38 -4 3 -13 -2 -20 -10 -9 -11 -9 -15 -1 -15 9 0 9 -5 1
-20 -6 -11 -15 -18 -19 -16 -4 3 -8 -1 -8 -9 0 -8 5 -12 11 -9 6 3 3 -1 -7 -9
-12 -10 -14 -17 -8 -22 6 -3 11 -11 11 -16 0 -6 -6 -7 -12 -3 -10 6 -10 5 -1
-8 11 -12 9 -18 -7 -33 -11 -10 -17 -21 -15 -26 3 -4 1 -11 -5 -14 -7 -4 -7
-11 -2 -18 10 -13 8 -45 -4 -55 -4 -4 -4 1 -1 10 4 11 2 15 -6 12 -9 -3 -13
-30 -12 -89 1 -46 -3 -82 -7 -79 -5 3 -5 11 -2 17 5 9 3 9 -6 0 -10 -9 -13
-77 -12 -310 1 -371 0 -353 13 -353 5 0 7 5 3 12 -4 6 -3 8 3 5 5 -3 9 -31 8
-61 -1 -31 2 -56 8 -56 5 0 4 -7 -3 -15 -7 -9 -10 -18 -6 -22 3 -3 6 -1 6 5 0
6 7 9 16 5 13 -5 13 -7 2 -14 -10 -7 -10 -9 -1 -9 15 0 13 -21 -2 -32 -6 -5
-6 -8 1 -8 6 0 10 -12 9 -27 -2 -29 12 -56 25 -48 10 6 7 -49 -3 -56 -5 -4 1
-16 13 -27 13 -12 20 -27 17 -36 -4 -9 -1 -16 6 -16 8 0 8 -3 -2 -9 -9 -6 -10
-11 -2 -15 6 -4 9 -11 6 -16 -3 -5 0 -12 6 -16 7 -4 9 -3 5 4 -3 6 -2 13 2 16
5 3 9 -15 8 -39 -1 -30 3 -45 11 -45 13 0 16 -8 16 -43 0 -13 4 -16 15 -12 9
3 13 3 9 -1 -4 -4 -2 -13 4 -20 7 -8 7 -14 -1 -19 -14 -9 6 -45 26 -45 12 0
13 -4 3 -22 -10 -18 -9 -20 5 -15 14 6 19 -3 15 -29 0 -4 5 -11 13 -15 10 -7
10 -9 -2 -10 -10 0 -8 -3 5 -8 11 -5 21 -13 21 -20 1 -6 2 -16 3 -22 0 -5 6
-7 11 -4 10 6 13 -3 13 -38 0 -14 2 -15 16 -5 9 7 13 8 9 4 -4 -5 -3 -15 3
-23 9 -10 8 -13 0 -13 -7 0 -9 -5 -6 -11 4 -6 13 -8 20 -5 9 3 12 -2 9 -18 -3
-18 0 -23 14 -22 9 0 17 -6 17 -14 0 -9 15 -29 32 -46 26 -24 30 -33 20 -43
-9 -10 -8 -11 5 -6 11 4 18 0 23 -14 3 -12 10 -19 15 -16 5 3 12 -5 16 -19 3
-14 11 -24 18 -23 6 1 10 -4 8 -11 -1 -8 2 -11 7 -8 12 8 34 -20 26 -33 -4 -7
1 -8 11 -4 13 5 16 3 11 -10 -4 -11 -2 -14 8 -11 7 3 22 -3 32 -13 11 -10 34
-29 52 -43 57 -42 71 -57 63 -64 -4 -4 -2 -7 3 -6 6 1 19 2 30 1 17 -1 18 -3
5 -11 -12 -8 -11 -10 8 -10 13 0 22 -6 22 -16 0 -8 5 -12 10 -9 6 3 10 1 10
-6 0 -7 3 -9 7 -6 3 4 17 -5 30 -19 12 -14 23 -20 23 -13 0 6 8 2 18 -9 9 -12
24 -22 32 -24 20 -4 39 -21 33 -30 -2 -5 10 -8 27 -8 18 0 29 -4 25 -10 -3 -5
1 -10 9 -10 9 0 16 -4 16 -10 0 -5 7 -10 16 -10 9 0 12 -5 8 -12 -4 -6 -3 -8
4 -4 5 3 24 -5 41 -20 17 -14 34 -23 38 -21 11 7 33 -19 25 -29 -4 -5 1 -2 11
5 15 12 17 11 17 -5 0 -16 2 -17 10 -4 5 8 10 10 10 4 0 -14 48 -36 61 -29 5
4 9 -1 9 -9 0 -10 7 -13 20 -11 11 2 18 0 15 -6 -6 -9 8 -13 33 -10 7 1 15 -5
18 -13 3 -9 10 -14 14 -11 5 3 16 -2 25 -11 9 -9 19 -14 22 -10 4 3 17 -1 29
-9 13 -8 30 -12 39 -9 11 5 14 2 8 -12 -4 -11 -3 -15 4 -11 13 8 75 -12 85
-27 4 -6 8 -8 8 -4 0 4 52 -11 115 -32 63 -22 118 -39 122 -38 8 2 66 -22 107
-44 12 -6 16 -6 11 1 -10 18 12 13 31 -6 10 -10 19 -16 21 -14 2 2 17 1 34 -3
21 -4 28 -10 23 -18 -6 -9 -3 -9 9 1 13 10 17 10 17 1 0 -7 7 -10 15 -6 8 3
15 1 15 -4 0 -5 7 -7 15 -4 8 4 15 1 15 -4 0 -6 9 -9 20 -7 11 2 20 -1 20 -6
0 -6 5 -7 10 -4 6 3 10 1 10 -5 0 -7 8 -9 20 -5 11 3 20 2 20 -3 0 -6 7 -13
16 -16 10 -4 13 -2 8 7 -5 8 -2 7 9 -2 9 -7 17 -10 17 -5 0 5 4 3 8 -4 5 -7
23 -14 40 -15 18 -1 32 -4 32 -7 0 -3 9 -11 21 -18 17 -11 20 -11 14 0 -3 7
-1 6 7 -3 7 -9 19 -14 26 -12 6 3 12 0 12 -7 0 -6 4 -9 10 -5 5 3 17 -2 27
-12 10 -10 26 -17 36 -15 9 2 17 -1 17 -7 0 -6 7 -11 15 -11 8 0 15 -4 15 -8
0 -4 10 -9 22 -9 13 -1 24 -7 26 -13 2 -5 10 -10 18 -10 9 0 12 -5 9 -10 -4
-6 -3 -10 2 -9 20 4 44 -2 39 -9 -2 -4 4 -14 16 -21 16 -10 19 -10 13 1 -4 7
7 -2 23 -20 20 -22 32 -28 35 -20 3 8 6 5 6 -6 1 -11 4 -17 7 -13 9 9 44 -25
37 -36 -4 -6 1 -8 10 -4 12 5 19 -1 23 -19 5 -19 9 -22 15 -12 7 10 9 10 10
-2 1 -8 1 -18 1 -22 -1 -3 6 -12 15 -20 14 -11 16 -11 8 1 -5 9 -4 12 3 7 6
-4 8 -14 5 -23 -4 -10 -2 -14 5 -9 11 7 27 -29 24 -54 -2 -12 -1 -12 6 -1 14
19 20 2 18 -51 -1 -32 3 -48 11 -48 6 0 15 -5 19 -12 5 -8 2 -9 -9 -5 -9 3
-19 2 -22 -3 -3 -4 1 -10 7 -13 10 -3 10 -7 0 -19 -8 -10 -9 -19 -3 -22 10 -7
9 -31 -2 -42 -3 -4 -2 -15 4 -25 6 -13 6 -19 -1 -19 -6 0 -8 -22 -6 -55 3 -49
2 -54 -12 -43 -13 11 -14 9 -8 -15 5 -22 1 -33 -19 -53 -14 -14 -22 -30 -19
-36 4 -7 2 -8 -4 -4 -7 4 -12 2 -12 -4 0 -6 -5 -8 -12 -4 -7 4 -8 3 -4 -5 4
-6 0 -14 -8 -17 -9 -3 -13 -10 -10 -15 3 -5 -2 -9 -11 -9 -8 0 -18 -7 -21 -15
-4 -8 -10 -12 -15 -9 -5 3 -9 -3 -9 -13 0 -14 -2 -15 -9 -4 -7 11 -10 10 -15
-6 -5 -14 -14 -19 -31 -18 -13 2 -26 -3 -29 -12 -3 -8 -10 -11 -16 -8 -6 3
-13 0 -16 -8 -3 -9 -16 -13 -35 -11 -18 2 -28 0 -24 -6 7 -11 2 -12 -57 -13
-21 0 -34 -5 -31 -11 4 -5 -1 -7 -10 -3 -10 3 -17 3 -17 -1 0 -8 -270 -9 -285
-1 -6 3 -20 4 -32 3 -13 0 -23 2 -23 5 0 4 -18 6 -40 5 -22 -1 -43 3 -47 9 -4
6 -1 7 8 2 8 -5 11 -4 6 1 -4 4 -31 9 -58 10 -27 1 -56 7 -63 13 -7 6 -16 7
-20 3 -4 -4 -14 2 -22 12 -10 14 -14 16 -14 5 0 -12 -2 -12 -9 0 -5 7 -13 11
-19 7 -6 -3 -16 0 -24 7 -7 8 -18 12 -24 10 -7 -2 -18 3 -27 11 -8 8 -17 13
-20 10 -3 -3 -16 0 -29 7 -12 7 -29 14 -37 15 -8 2 -17 8 -21 14 -4 7 -11 12
-16 13 -5 1 -8 5 -7 8 1 4 -7 4 -19 1 -14 -3 -19 -1 -14 6 4 7 4 12 -1 13 -29
2 -47 9 -53 19 -4 7 -11 12 -16 13 -5 1 -8 5 -7 9 1 3 -5 5 -15 4 -9 -2 -22 2
-29 8 -33 29 -41 34 -47 29 -3 -4 -6 -1 -6 5 0 7 -9 12 -19 12 -11 0 -23 5
-27 12 -5 7 -3 8 6 3 9 -6 11 -4 6 4 -5 7 -15 10 -23 7 -8 -3 -11 -1 -8 4 3 6
-1 10 -10 10 -8 0 -18 7 -21 15 -4 8 -13 15 -21 15 -8 0 -11 5 -8 10 3 6 -3
10 -13 10 -11 0 -22 9 -25 20 -3 11 -13 20 -22 20 -9 0 -13 5 -10 10 3 6 1 10
-6 10 -7 0 -29 18 -50 39 -20 22 -40 37 -45 33 -4 -4 -4 1 -1 11 6 16 -4 22
-27 18 -5 -1 -3 6 5 15 9 12 9 15 2 10 -8 -4 -13 -2 -13 6 0 10 -2 10 -9 -1
-7 -11 -10 -9 -13 8 -1 12 -6 20 -10 19 -4 -2 -15 8 -25 22 -9 14 -23 29 -30
33 -7 5 -10 13 -7 19 4 6 3 8 -4 4 -6 -3 -17 1 -25 9 -9 8 -23 15 -31 15 -9 0
-16 4 -16 9 0 14 -133 8 -148 -6 -8 -7 -18 -10 -24 -7 -6 4 -8 3 -5 -3 4 -6
-5 -15 -18 -21 -14 -7 -25 -17 -25 -23 0 -6 -6 -9 -12 -7 -7 3 -22 -4 -32 -15
-19 -20 -19 -20 0 -14 18 6 18 6 -1 -8 -34 -24 -61 -47 -48 -40 9 4 11 1 7 -9
-3 -9 -10 -13 -15 -10 -5 3 -12 -2 -15 -10 -3 -9 -12 -16 -19 -16 -9 0 -12 -8
-10 -21 4 -18 2 -19 -11 -8 -8 7 -14 8 -13 3 4 -17 -13 -44 -24 -37 -7 4 -8 0
-4 -11 5 -12 3 -17 -5 -14 -7 2 -23 -6 -35 -19 -23 -24 -18 -32 7 -10 8 6 4 0
-9 -15 -24 -28 -38 -37 -26 -18 3 5 0 7 -9 4 -8 -3 -12 -12 -10 -19 6 -14 -49
-58 -59 -48 -4 3 -4 -4 -2 -17 3 -18 2 -20 -10 -10 -12 10 -13 8 -10 -9 3 -16
-1 -21 -13 -19 -11 2 -16 -3 -14 -14 2 -11 -10 -23 -33 -34 -22 -10 -32 -20
-25 -24 12 -7 -42 -60 -62 -60 -6 0 -8 -7 -5 -14 4 -11 1 -13 -10 -9 -10 4
-14 2 -10 -4 4 -6 0 -13 -8 -17 -8 -3 -15 -13 -15 -22 0 -10 -5 -14 -15 -10
-8 3 -14 2 -14 -2 1 -4 1 -14 0 -22 -1 -13 -2 -13 -11 0 -7 10 -10 11 -11 3
-1 -7 -3 -17 -4 -23 -1 -5 -3 -15 -4 -21 0 -5 -5 -8 -9 -5 -4 2 -19 -5 -32
-16 -14 -11 -19 -17 -13 -13 9 4 11 1 7 -9 -3 -9 -10 -13 -15 -10 -5 3 -9 -2
-9 -10 0 -8 -4 -18 -10 -21 -6 -4 -7 1 -3 12 6 15 5 16 -9 3 -8 -8 -13 -21
-10 -28 2 -8 -4 -16 -17 -19 -11 -3 -21 -9 -21 -14 0 -5 -8 -9 -17 -9 -15 0
-16 -2 -3 -10 13 -9 13 -10 0 -11 -8 -1 -18 -1 -21 -1 -4 1 -6 -6 -5 -16 0 -9
-6 -17 -14 -17 -8 0 -16 -6 -16 -12 -1 -7 -2 -18 -3 -24 0 -5 -5 -8 -10 -5 -5
3 -12 -1 -15 -10 -3 -8 -10 -12 -16 -9 -9 6 -14 -8 -11 -27 1 -8 -15 -12 -31
-9 -5 0 -7 -5 -5 -12 1 -6 -4 -11 -11 -9 -7 1 -15 -5 -18 -13 -4 -8 -26 -36
-51 -62 -25 -27 -42 -42 -38 -34 6 9 4 12 -4 7 -6 -4 -11 -13 -10 -19 3 -25
-2 -37 -13 -34 -8 1 -13 -8 -13 -21 0 -12 -7 -27 -15 -32 -21 -13 -21 -102 0
-95 11 3 16 -2 16 -15 0 -11 -4 -20 -9 -20 -4 0 -2 -6 5 -14 7 -8 17 -11 22
-8 5 3 7 -2 3 -11 -3 -9 -3 -16 1 -14 11 3 62 -49 62 -63 0 -6 5 -8 10 -5 9 6
14 -8 11 -28 0 -4 2 -6 6 -6 23 4 35 -3 30 -16 -4 -8 -1 -17 5 -21 7 -4 8 -3
4 4 -4 7 -2 12 3 12 6 0 11 -7 11 -16 0 -8 4 -13 9 -9 5 3 12 -4 16 -15 4 -11
11 -17 17 -14 8 5 9 1 5 -10 -4 -10 -3 -15 3 -11 6 3 10 1 10 -6 0 -7 3 -9 6
-6 4 4 14 -1 23 -11 9 -10 24 -21 34 -25 9 -3 17 -13 17 -22 0 -8 7 -15 16
-15 8 0 12 -4 9 -10 -3 -5 1 -10 10 -10 8 0 18 -7 21 -15 4 -8 10 -12 15 -9 5
3 9 -2 9 -10 0 -10 6 -13 17 -9 13 5 15 2 10 -11 -4 -10 -3 -15 3 -11 6 3 10
1 10 -5 0 -6 5 -8 10 -5 6 3 10 1 10 -5 0 -6 5 -8 10 -5 6 3 10 1 10 -4 0 -6
4 -11 9 -11 6 0 22 -11 37 -25 14 -13 31 -22 37 -18 5 3 8 2 5 -3 -3 -5 0 -15
8 -22 8 -7 14 -10 14 -7 0 3 9 1 20 -5 11 -6 17 -16 14 -22 -4 -6 -3 -8 4 -4
6 3 21 -4 33 -16 12 -13 19 -17 14 -10 -6 11 -3 11 13 1 12 -7 18 -17 16 -21
-3 -5 -2 -8 3 -7 20 3 34 -2 28 -11 -4 -6 -3 -10 2 -9 14 3 73 -23 73 -32 0
-5 9 -9 19 -9 11 0 23 -5 26 -10 4 -6 11 -7 17 -4 7 5 9 1 5 -9 -3 -9 -3 -16
1 -16 25 4 52 -3 47 -11 -3 -5 3 -10 14 -10 12 0 21 -4 21 -9 0 -5 7 -12 16
-15 10 -4 13 -2 9 7 -4 6 -1 5 7 -4 7 -9 15 -16 18 -16 10 1 70 -28 70 -33 0
-3 10 -6 22 -7 11 -1 24 -7 28 -13 4 -7 10 -11 14 -11 6 0 25 -5 54 -16 9 -3
20 -5 25 -5 4 1 7 -3 7 -9 0 -5 4 -8 9 -4 5 3 12 1 16 -5 4 -6 10 -8 15 -5 4
2 21 -5 36 -17 19 -15 24 -17 15 -5 -12 15 -12 17 3 11 9 -3 16 -10 16 -16 0
-5 6 -8 13 -6 6 1 23 -4 36 -11 19 -11 22 -11 15 0 -4 7 8 2 26 -11 18 -13 30
-17 25 -9 -7 11 -5 11 11 -1 10 -9 31 -15 46 -14 15 0 25 -3 22 -7 -3 -5 3
-10 13 -11 10 0 24 -2 31 -2 7 -1 17 -7 21 -15 7 -11 9 -11 14 0 3 8 6 9 6 2
1 -6 10 -9 21 -6 12 3 20 0 20 -6 0 -7 5 -9 10 -6 6 3 10 2 10 -2 0 -5 14 -8
30 -7 17 1 30 -1 30 -5 0 -8 15 -11 68 -12 17 -1 32 -4 32 -8 0 -7 25 -12 73
-14 15 0 27 -3 27 -7 0 -3 17 -7 38 -8 63 -5 88 -9 102 -17 9 -6 11 -4 5 6 -7
11 -6 12 6 2 8 -6 41 -13 72 -14 32 -1 60 -6 63 -11 3 -5 12 -4 19 2 9 8 15 8
20 0 3 -5 11 -10 16 -10 6 0 7 6 3 13 -5 8 -2 8 9 -2 23 -18 666 -19 677 0 6
8 9 8 13 -2 4 -12 7 -11 16 1 10 13 12 13 21 0 5 -8 10 -10 10 -4 0 6 10 11
23 11 109 1 128 4 121 16 -5 8 -2 8 9 -2 9 -7 17 -9 17 -4 0 5 26 10 57 11 31
1 59 5 62 10 3 5 16 8 29 7 13 -1 25 2 28 6 2 5 11 6 19 2 9 -3 15 1 15 8 0
11 3 11 10 -1 6 -9 10 -10 10 -3 0 6 9 10 20 8 11 -2 20 0 20 6 0 5 3 8 8 8 4
-1 10 0 15 1 15 5 27 8 43 9 8 0 13 5 10 9 -2 4 10 7 27 7 40 -2 59 4 51 16
-3 5 -2 9 3 8 17 -4 83 14 83 22 0 5 3 8 8 7 4 -1 23 4 42 11 19 8 39 13 43
12 4 -1 20 5 36 14 16 8 32 11 36 7 5 -4 5 -1 1 6 -5 8 0 12 14 12 12 0 19 4
15 9 -3 6 4 8 15 6 11 -2 20 1 20 7 0 6 3 9 6 5 4 -3 13 1 21 9 9 8 22 13 30
10 9 -4 11 -2 7 6 -5 8 0 9 15 5 19 -5 20 -3 9 11 -11 13 -11 15 4 9 9 -3 22
0 28 8 6 8 18 11 26 8 7 -3 17 2 20 12 4 9 12 14 19 11 8 -3 16 2 19 11 4 9 9
13 12 10 4 -3 13 1 21 9 8 8 19 12 24 9 5 -4 9 1 9 9 0 9 7 13 19 11 15 -3 18
1 14 12 -4 10 -2 14 4 10 5 -3 19 3 31 13 23 22 37 26 26 8 -4 -7 -3 -8 5 -4
6 4 9 12 6 17 -4 5 -2 9 3 9 5 0 19 9 32 20 12 11 27 17 31 14 5 -3 9 -1 9 5
0 6 7 8 15 5 11 -5 13 -2 9 10 -4 11 -2 16 7 14 8 -2 13 3 11 10 -1 8 2 11 8
7 5 -3 10 -1 10 6 0 7 3 10 6 6 8 -8 33 16 27 26 -2 4 1 7 6 7 6 0 11 -6 11
-12 0 -7 6 -4 12 7 14 23 38 49 38 40 0 -3 19 13 42 37 23 24 46 42 50 40 4
-1 8 5 8 13 0 13 12 19 32 16 4 0 5 6 2 14 -6 13 6 20 29 16 4 0 6 5 5 11 -2
7 3 12 10 10 6 -1 11 1 10 5 -2 5 1 8 5 8 4 0 15 14 23 32 9 17 25 33 36 36
14 4 19 11 15 21 -4 9 -3 15 1 15 19 -3 33 2 28 10 -3 5 1 14 9 21 8 7 15 19
15 26 0 8 7 14 15 14 8 0 15 9 15 19 0 15 5 18 23 14 12 -3 18 -1 12 4 -14 11
-18 36 -5 28 5 -3 10 -1 10 5 0 6 4 9 9 5 6 -3 8 4 6 15 -3 15 1 20 13 18 12
-2 17 4 17 22 1 14 6 24 13 23 7 -2 12 4 12 12 0 8 9 24 20 35 11 11 15 20 9
20 -5 0 -7 5 -4 10 3 6 15 10 26 10 10 0 19 5 19 11 0 5 -4 7 -10 4 -5 -3 -10
1 -10 9 0 9 6 16 14 16 17 0 26 22 21 49 -2 14 1 18 11 14 10 -4 14 2 14 21 0
14 0 29 1 34 0 4 10 13 22 20 17 10 18 12 3 7 -15 -4 -17 -3 -8 8 7 8 8 18 4
22 -4 5 1 5 10 2 13 -4 15 -2 11 10 -4 10 -2 14 4 10 6 -4 10 5 11 21 0 54 2
62 15 62 8 0 13 10 12 23 -1 12 6 29 15 37 10 10 16 30 16 60 -1 29 3 44 10
43 14 -3 25 55 12 63 -4 3 -2 11 5 18 6 8 16 11 21 8 5 -3 7 2 3 11 -3 9 -2
19 3 22 7 4 7 26 0 45 -6 15 -4 36 5 42 6 5 5 8 -3 8 -10 0 -10 3 0 14 7 8 16
12 20 10 3 -2 5 7 3 21 -1 14 2 28 7 31 4 3 5 11 1 17 -12 19 -12 36 -1 44 7
4 8 1 3 -8 -7 -12 -5 -12 6 -1 12 11 12 14 -1 22 -13 9 -13 10 1 10 13 0 15
19 13 135 -2 101 0 133 9 128 9 -5 9 -3 1 8 -16 20 -17 89 -1 89 8 0 9 3 1 8
-7 4 -11 62 -11 162 0 99 -3 154 -10 153 -11 -2 -13 10 -15 87 -1 36 -7 60
-17 68 -13 11 -13 12 -1 7 10 -4 10 -2 -2 8 -14 11 -15 16 -5 27 9 10 9 11 -1
6 -8 -5 -11 -1 -9 13 2 11 6 23 10 27 3 4 2 14 -3 24 -5 10 -6 21 -2 25 4 5
-1 5 -11 2 -11 -4 -16 -3 -12 3 3 6 0 10 -7 10 -10 0 -10 2 1 9 11 7 11 9 0
14 -8 3 -9 6 -3 6 7 1 9 12 6 26 -3 18 -8 23 -16 16 -9 -7 -12 3 -11 38 0 43
-2 47 -20 44 -17 -4 -17 -3 -5 6 11 8 12 11 2 11 -7 0 -11 4 -7 9 3 5 -3 17
-12 27 -20 19 -23 45 -8 56 6 4 0 8 -12 8 -17 0 -21 5 -19 29 1 17 -2 28 -6
25 -4 -3 -8 0 -8 6 0 6 -5 8 -11 5 -7 -5 -9 3 -6 24 4 23 1 31 -9 31 -9 0 -12
5 -9 10 3 6 1 10 -5 10 -7 0 -9 7 -6 16 3 8 2 13 -3 10 -12 -8 -29 16 -26 36
2 10 -2 21 -7 25 -7 4 -8 1 -4 -8 4 -8 1 -6 -8 4 -8 11 -12 25 -10 32 3 7 -4
19 -16 25 -11 6 -18 15 -15 21 4 5 1 8 -6 7 -7 -2 -14 3 -15 10 -1 6 -2 16 -3
22 0 5 -8 7 -16 4 -10 -4 -13 0 -10 15 2 13 -3 22 -16 26 -22 7 -25 21 -6 29
6 3 5 4 -5 3 -9 -1 -17 3 -18 8 -1 6 -10 13 -22 18 -14 5 -19 13 -15 26 3 13
1 18 -8 14 -12 -4 -42 34 -38 48 1 4 -5 6 -15 5 -11 -1 -16 6 -16 17 2 15 -1
16 -14 5 -12 -10 -14 -10 -8 0 4 7 2 12 -4 12 -7 0 -10 6 -7 14 4 10 0 14 -13
11 -11 -2 -19 1 -17 8 1 6 -5 11 -13 12 -8 0 -14 9 -13 18 0 11 -9 23 -23 29
-13 6 -24 15 -24 20 0 5 -4 6 -10 3 -5 -3 -10 -1 -10 6 0 7 -3 10 -6 6 -3 -3
-17 5 -31 19 -13 13 -28 24 -34 24 -6 0 -7 6 -3 13 4 6 4 9 -1 5 -4 -4 -13 -3
-20 2 -6 5 -21 11 -32 13 -11 1 -39 18 -63 37 -25 19 -41 28 -36 20 4 -8 0 -6
-8 4 -9 11 -16 16 -16 11 0 -4 -12 5 -26 21 -15 16 -23 23 -20 17 5 -9 2 -11
-8 -7 -9 3 -16 10 -16 14 0 4 -12 15 -26 25 -15 9 -23 12 -19 5 6 -9 3 -9 -14
-1 -11 7 -21 14 -21 17 0 3 6 2 13 -2 7 -4 8 -3 4 2 -5 5 -16 9 -25 9 -9 0
-16 5 -15 12 2 7 -4 10 -12 7 -8 -4 -15 -1 -15 6 0 6 -4 9 -9 6 -5 -3 -19 3
-32 13 -13 10 -32 17 -42 15 -9 -1 -15 1 -13 4 2 4 -2 12 -9 19 -11 10 -15 10
-18 0 -4 -9 -6 -9 -6 1 -1 6 -10 12 -22 12 -11 0 -17 5 -14 10 3 6 -3 10 -14
10 -11 0 -23 5 -26 10 -3 6 -17 10 -31 10 -14 0 -22 4 -19 10 3 6 -1 10 -10
10 -9 0 -23 7 -32 15 -8 8 -19 13 -24 9 -5 -3 -22 4 -38 15 -16 12 -33 21 -38
21 -4 0 -1 -5 7 -10 10 -6 11 -10 3 -10 -7 0 -22 9 -34 21 -11 11 -27 18 -35
15 -8 -3 -17 1 -20 9 -4 8 -10 13 -14 10 -5 -3 -11 -1 -15 5 -4 6 -11 8 -16 4
-6 -3 -20 3 -32 14 -12 11 -33 18 -45 17 -13 -1 -26 4 -29 12 -3 8 -13 11 -24
8 -13 -4 -19 -1 -19 8 0 9 -7 14 -17 12 -10 -1 -27 2 -38 8 -11 6 -26 10 -33
8 -8 -1 -21 4 -30 12 -10 8 -25 13 -35 12 -9 -2 -15 1 -11 6 5 9 -3 11 -43 12
-12 0 -20 4 -17 8 4 8 -25 14 -48 10 -5 0 -8 7 -8 16 0 12 -3 14 -11 6 -12
-12 -52 -5 -43 8 5 9 -14 13 -51 10 -17 -2 -17 0 -5 8 11 8 6 11 -23 11 -27 0
-36 4 -31 12 5 7 2 9 -8 5 -9 -3 -24 0 -35 8 -10 7 -34 16 -53 19 -19 3 -36 9
-38 15 -2 5 -10 7 -19 4 -12 -5 -14 -3 -8 8 7 11 5 11 -10 -1 -14 -11 -17 -12
-11 -1 6 9 5 12 -5 9 -8 -3 -23 2 -33 11 -16 13 -18 13 -11 1 7 -12 6 -13 -7
-3 -8 7 -17 10 -21 7 -3 -3 -15 4 -27 16 -11 11 -25 18 -31 15 -5 -4 -17 -1
-26 7 -14 11 -16 11 -9 -2 6 -12 4 -11 -6 1 -7 9 -19 14 -27 11 -8 -3 -11 0
-7 7 6 10 -12 16 -36 12 -5 0 -8 4 -8 10 0 5 -4 7 -10 4 -5 -3 -10 -1 -10 5 0
6 -4 8 -10 5 -5 -3 -10 -1 -10 5 0 6 -4 8 -10 5 -5 -3 -10 -1 -10 4 0 6 -7 11
-15 11 -8 0 -15 4 -15 9 0 5 -9 11 -21 14 -13 4 -18 10 -13 18 4 7 3 10 -4 5
-6 -3 -17 0 -25 8 -8 8 -17 12 -21 9 -3 -4 -6 3 -6 15 0 12 -5 22 -11 22 -5 0
-7 -5 -3 -12 5 -7 3 -8 -5 -4 -7 5 -10 15 -7 23 3 8 2 11 -4 8 -12 -8 -50 35
-50 57 0 10 -7 18 -15 18 -11 0 -14 7 -9 25 4 17 2 25 -7 25 -11 0 -11 3 1 10
13 8 12 10 -4 10 -15 0 -16 3 -6 15 7 9 10 18 6 22 -3 3 -6 1 -6 -5 0 -7 -4
-12 -9 -12 -6 0 -9 9 -8 19 0 11 4 18 9 15 8 -5 3 30 -7 46 -3 6 0 10 7 10 9
0 9 3 2 8 -13 9 -14 42 -1 42 5 0 3 8 -4 17 -12 14 -12 16 0 8 11 -6 13 -4 8
11 -7 18 -6 18 9 -1 16 -20 16 -20 9 3 -8 28 2 62 20 62 9 0 12 8 10 20 -2 11
0 18 6 15 5 -4 9 -3 9 2 0 15 47 63 62 63 8 0 24 14 36 30 13 17 29 30 37 30
8 0 15 5 15 11 0 5 4 8 9 4 6 -3 14 3 20 12 8 14 11 15 11 3 0 -12 3 -12 11 2
5 10 16 15 24 12 8 -4 15 -1 15 6 0 6 5 8 10 5 6 -3 10 -2 10 3 0 9 9 11 58
14 15 1 30 6 34 11 3 6 40 11 82 11 42 1 76 5 76 10 0 5 7 3 15 -4 11 -9 15
-9 15 -1 0 7 5 9 12 5 7 -4 62 -8 123 -9 61 -1 117 -5 124 -10 8 -4 35 -9 60
-10 25 -1 45 -7 44 -12 -1 -6 15 -9 37 -8 22 1 38 -1 35 -5 -2 -4 20 -13 50
-20 30 -7 55 -17 55 -22 0 -4 14 -8 31 -8 17 0 28 -4 24 -10 -3 -6 1 -7 9 -4
10 4 16 1 16 -7 0 -7 3 -10 6 -6 4 3 15 -4 26 -16 11 -12 17 -16 13 -9 -10 20
4 14 31 -13 14 -14 30 -23 35 -20 5 4 9 1 9 -4 0 -6 7 -11 15 -11 8 0 15 -4
15 -10 0 -5 7 -10 15 -10 8 0 15 -4 15 -10 0 -5 7 -10 15 -10 9 0 19 -9 23
-21 5 -11 12 -21 17 -22 6 -1 9 -6 7 -11 -2 -5 4 -6 13 -3 9 4 15 1 15 -8 0
-9 9 -15 21 -15 12 0 23 -8 26 -20 3 -11 10 -20 15 -20 5 0 6 -5 3 -10 -4 -6
-3 -9 2 -8 14 5 56 -40 48 -52 -4 -7 0 -10 11 -8 11 2 18 -2 16 -9 -1 -7 5
-13 14 -13 8 0 13 -4 10 -9 -3 -5 6 -17 20 -27 15 -11 37 -29 50 -42 13 -13
24 -19 24 -15 0 4 4 2 9 -6 12 -19 130 -18 142 1 5 7 9 9 9 3 0 -5 7 -2 14 8
8 10 17 18 20 18 15 -1 35 12 30 20 -5 8 10 13 29 10 5 -1 6 2 3 7 -2 4 -1 14
5 22 6 11 9 12 9 2 0 -7 5 -10 10 -7 6 4 8 10 5 15 -3 4 2 10 10 14 8 3 15 13
15 21 0 9 3 14 8 12 9 -6 33 19 25 27 -3 3 2 8 11 12 9 3 13 10 10 15 -5 8 9
13 28 10 4 0 4 7 1 16 -5 13 -2 15 11 10 10 -4 15 -3 11 3 -3 6 -1 10 4 10 6
0 10 6 9 13 -2 6 3 11 10 9 8 -1 11 2 7 8 -3 6 4 14 17 19 13 6 17 10 10 10
-10 1 -10 5 2 17 9 8 21 12 27 8 8 -4 9 -3 5 5 -5 7 1 20 13 30 11 10 17 21
13 25 -4 4 -2 7 3 6 18 -4 35 0 34 8 -3 20 3 31 19 37 11 3 24 17 31 31 6 14
16 22 21 19 6 -4 7 1 3 12 -3 10 -3 15 1 11 11 -9 67 43 59 55 -4 6 0 8 10 4
11 -4 14 -2 11 7 -3 7 2 16 10 19 9 4 16 14 16 23 0 11 5 14 17 10 10 -4 14
-4 10 0 -9 9 13 35 24 28 8 -4 14 17 10 38 0 4 7 4 17 1 9 -3 13 -2 9 2 -4 5
3 15 15 23 16 9 17 12 4 7 -16 -5 -17 -3 -6 10 7 8 15 13 19 11 6 -4 38 26 33
31 -4 5 23 43 31 43 5 0 20 14 34 30 13 17 29 27 35 24 5 -3 8 2 6 12 -2 13 3
19 14 18 10 -1 15 2 13 7 -7 10 59 79 75 79 6 0 8 5 5 11 -4 6 2 19 14 30 12
11 21 16 21 12 1 -4 7 3 15 17 7 14 17 25 22 25 4 0 7 3 5 8 -2 6 12 11 29 9
4 -1 6 9 5 21 -1 13 4 21 12 19 6 -1 12 5 12 13 0 9 7 18 15 21 8 4 12 10 9
15 -3 5 1 18 9 30 11 15 16 17 20 7 2 -7 4 26 4 74 0 71 -3 86 -13 77 -10 -8
-12 -6 -9 10 2 12 -1 21 -6 21 -6 0 -7 5 -4 10 3 6 -1 10 -9 10 -9 0 -15 6
-14 13 2 6 -3 11 -9 9 -12 -2 -17 10 -14 31 0 4 -8 7 -20 7 -13 0 -18 4 -13
12 5 7 2 9 -9 5 -11 -4 -14 -2 -11 7 3 8 0 17 -7 22 -8 4 -10 3 -5 -4 5 -8 2
-10 -8 -6 -9 3 -13 10 -10 15 3 5 0 9 -6 9 -6 0 -8 5 -4 13 5 7 2 7 -10 -2 -9
-8 -16 -10 -15 -5 3 18 -1 37 -7 31 -4 -3 -12 -1 -19 6 -7 7 -22 18 -33 26
-12 8 -19 18 -16 23 3 4 -2 5 -10 2 -14 -5 -20 5 -18 27 1 4 -8 5 -18 2 -16
-4 -20 0 -20 18 0 19 -2 21 -10 9 -9 -13 -14 -7 -11 12 0 4 -5 5 -13 2 -8 -3
-25 9 -41 28 -15 18 -24 27 -20 21 3 -7 1 -13 -4 -13 -6 0 -11 4 -11 9 0 5
-11 12 -25 15 -14 4 -25 14 -25 22 0 10 -6 14 -15 10 -8 -3 -15 -1 -15 5 0 6
-4 8 -9 5 -5 -3 -11 1 -15 9 -3 8 -10 15 -17 15 -6 0 -19 10 -30 23 -10 13
-18 17 -19 9 0 -7 -5 -10 -10 -7 -6 4 -8 11 -5 16 4 5 -5 9 -19 9 -13 0 -26 4
-28 9 -1 5 -10 11 -18 13 -8 2 -21 11 -30 21 -8 9 -27 18 -43 19 -18 2 -26 7
-22 16 2 7 1 10 -5 7 -9 -6 -44 10 -67 32 -8 7 -21 9 -30 6 -11 -4 -14 -3 -9
5 5 8 0 12 -13 12 -12 0 -21 5 -21 10 0 6 -14 10 -31 10 -17 0 -28 4 -24 10 3
6 -5 10 -19 10 -14 0 -28 5 -31 10 -3 6 -15 10 -26 10 -11 0 -17 5 -14 10 4 6
-7 10 -25 10 -20 0 -29 4 -24 11 3 6 -1 10 -12 9 -35 -4 -45 0 -38 13 4 6 3 9
-1 4 -5 -4 -19 0 -33 9 -13 9 -21 11 -18 5 4 -6 2 -11 -3 -11 -6 0 -11 5 -11
11 0 6 -7 9 -15 5 -8 -3 -20 0 -27 7 -7 7 -24 14 -38 16 -14 1 -27 6 -30 11
-3 4 -15 6 -27 5 -13 -1 -23 4 -23 10 0 7 -8 12 -17 12 -40 0 -54 3 -49 12 3
4 -10 7 -29 5 -19 -1 -38 2 -41 8 -5 7 -2 8 6 3 8 -5 11 -4 7 1 -3 6 -24 10
-46 9 -23 -1 -41 3 -41 8 0 4 -4 5 -10 2 -5 -3 -10 -2 -10 4 0 5 -11 8 -25 6
-14 -1 -25 2 -25 7 0 5 -4 6 -10 3 -5 -3 -10 -2 -10 2 0 5 -22 8 -49 8 -27 0
-49 4 -48 9 1 5 -24 9 -55 9 -32 0 -58 2 -58 6 0 9 -7 10 -82 13 -32 2 -58 5
-58 8 0 3 -8 6 -17 7 -38 4 -480 8 -505 5z m1882 -3567 c0 -12 -19 -12 -23 0
-4 9 -1 12 9 8 7 -3 14 -7 14 -8z m-1360 -1699 c0 -2 -7 -7 -16 -10 -8 -3 -12
-2 -9 4 6 10 25 14 25 6z m0 -70 c0 -3 -4 -8 -10 -11 -5 -3 -10 -1 -10 4 0 6
5 11 10 11 6 0 10 -2 10 -4z"/>
<path d="M7342 17694 c-19 -6 -37 -16 -41 -23 -5 -7 -12 -11 -17 -9 -5 1 -10
-7 -12 -20 -2 -12 -8 -20 -13 -17 -5 4 -9 -8 -9 -24 0 -17 -4 -31 -10 -31 -5
0 -10 -9 -10 -21 0 -11 -4 -18 -9 -15 -4 3 -7 -6 -5 -19 1 -14 -1 -25 -6 -25
-4 0 -11 -17 -15 -37 -4 -21 -12 -41 -18 -45 -6 -4 -12 -17 -12 -30 0 -14 -5
-22 -13 -20 -8 1 -11 -2 -7 -8 4 -6 1 -17 -5 -25 -9 -11 -9 -15 -1 -15 12 0
-5 -38 -22 -51 -5 -3 -8 -10 -8 -15 1 -5 -3 -22 -9 -37 -6 -19 -14 -26 -22
-21 -10 6 -10 4 0 -8 9 -12 10 -18 2 -23 -6 -4 -9 -13 -6 -20 2 -7 -1 -16 -9
-19 -8 -3 -12 -16 -11 -30 2 -17 -2 -26 -10 -26 -8 0 -14 -8 -14 -19 0 -27
-21 -82 -30 -76 -4 2 -5 -6 -3 -19 3 -13 -1 -27 -8 -31 -8 -6 -10 -4 -4 5 5 8
4 11 -3 6 -6 -3 -9 -18 -6 -31 2 -14 0 -25 -5 -25 -5 0 -8 -8 -7 -17 2 -10 -2
-21 -8 -25 -6 -4 -11 -13 -12 -20 -2 -24 -16 -58 -24 -58 -5 0 -7 -11 -6 -24
2 -14 -3 -27 -10 -30 -8 -3 -14 -14 -14 -24 0 -11 -6 -24 -13 -30 -7 -6 -14
-25 -15 -43 -1 -18 -12 -40 -23 -50 -14 -12 -16 -18 -7 -22 10 -4 10 -7 -1
-15 -7 -5 -11 -14 -7 -20 3 -6 1 -14 -5 -18 -8 -5 -9 -3 -4 6 5 8 4 11 -3 6
-6 -3 -9 -17 -6 -31 3 -15 -2 -27 -12 -33 -9 -5 -15 -12 -15 -15 3 -16 -12
-57 -20 -57 -5 0 -9 -12 -9 -26 0 -14 -5 -35 -12 -47 -7 -12 -13 -29 -14 -37
-2 -8 -8 -16 -14 -18 -5 -2 -7 -8 -4 -13 3 -6 2 -15 -3 -22 -5 -7 -9 -19 -8
-27 1 -19 -17 -40 -29 -32 -5 3 -6 0 -2 -7 11 -17 -3 -53 -17 -44 -7 4 -5 -2
3 -12 9 -11 10 -16 3 -11 -7 4 -13 4 -14 -1 -4 -45 -28 -113 -42 -124 -4 -3
-9 -17 -11 -30 -2 -23 -22 -72 -53 -131 -11 -23 -12 -28 -1 -28 8 0 9 -3 3 -8
-14 -10 -39 -64 -36 -79 1 -7 -3 -13 -9 -13 -6 0 -8 -4 -5 -10 3 -5 2 -10 -3
-10 -5 0 -9 -6 -9 -14 0 -8 -8 -30 -17 -51 -10 -20 -15 -39 -12 -42 2 -3 -4
-15 -15 -26 -11 -12 -17 -27 -15 -33 3 -7 -2 -20 -9 -31 -8 -10 -15 -28 -15
-40 0 -13 -4 -23 -10 -23 -5 0 -10 -9 -10 -19 0 -11 -6 -22 -12 -24 -9 -4 -9
-6 -1 -6 7 -1 4 -16 -10 -43 -11 -24 -25 -51 -30 -62 -5 -10 -11 -30 -14 -45
-2 -14 -9 -29 -15 -32 -6 -4 -7 -12 -4 -18 4 -6 2 -11 -3 -11 -6 0 -10 -3 -10
-7 3 -20 -2 -34 -10 -29 -5 4 -8 -2 -6 -11 1 -10 -2 -24 -8 -30 -5 -7 -6 -13
-2 -13 4 0 1 -7 -6 -16 -8 -9 -14 -22 -15 -28 -2 -23 -17 -56 -24 -56 -4 0 -7
-13 -6 -29 1 -16 -3 -29 -8 -28 -6 1 -11 -5 -11 -13 0 -8 -7 -21 -15 -28 -8
-8 -9 -11 -3 -7 9 4 11 1 7 -9 -3 -9 -10 -13 -15 -10 -5 3 -6 -2 -3 -10 3 -9
2 -16 -4 -16 -6 0 -8 -9 -5 -20 3 -12 -1 -22 -10 -26 -9 -3 -14 -14 -12 -25 2
-10 -1 -19 -6 -19 -6 0 -7 -4 -4 -10 3 -5 1 -10 -5 -10 -6 0 -8 -4 -5 -10 3
-5 2 -10 -4 -10 -5 0 -8 -9 -6 -20 2 -11 -2 -26 -8 -33 -7 -7 -13 -19 -15 -27
-2 -8 -11 -24 -20 -34 -9 -11 -11 -16 -4 -12 6 4 12 2 12 -3 0 -6 -4 -11 -10
-11 -5 0 -10 -11 -10 -25 0 -14 -5 -25 -12 -25 -6 0 -8 -3 -5 -7 4 -3 1 -16
-6 -27 -8 -12 -13 -29 -11 -39 1 -9 -1 -15 -6 -12 -5 3 -11 -8 -15 -25 -4 -16
-15 -46 -25 -67 -10 -21 -16 -41 -14 -44 2 -4 -4 -10 -13 -13 -14 -6 -14 -9
-4 -15 10 -7 10 -11 -1 -22 -7 -8 -13 -20 -14 -26 -2 -30 -5 -34 -14 -28 -6 4
-10 3 -9 -2 1 -4 -1 -20 -5 -34 -4 -14 -9 -32 -10 -40 -5 -26 -18 -49 -25 -45
-4 3 -8 -6 -9 -20 -4 -49 -6 -55 -16 -51 -7 3 -11 -8 -11 -30 1 -18 -3 -37 -8
-40 -6 -4 -7 -1 -2 7 5 8 4 11 -3 6 -6 -4 -8 -14 -5 -23 4 -11 3 -14 -5 -9 -8
5 -10 2 -6 -9 4 -8 2 -21 -3 -28 -5 -6 -20 -40 -33 -74 -14 -35 -28 -63 -31
-63 -4 0 -6 -8 -5 -17 2 -10 -2 -21 -8 -25 -8 -5 -7 -8 2 -8 10 0 10 -3 0 -14
-7 -8 -17 -11 -22 -8 -5 3 -6 1 -3 -5 3 -5 1 -26 -5 -46 -10 -32 -14 -35 -27
-24 -14 11 -14 10 -2 -5 8 -11 10 -25 6 -35 -5 -10 -7 -21 -7 -25 1 -5 -2 -8
-7 -8 -5 0 -11 -14 -15 -31 -3 -18 -14 -38 -24 -46 -9 -8 -11 -12 -4 -8 15 7
16 -11 1 -20 -5 -4 -8 -12 -6 -18 2 -7 -5 -20 -16 -29 -11 -10 -15 -18 -9 -18
6 0 4 -13 -6 -32 -9 -18 -18 -42 -19 -53 -2 -11 -8 -24 -13 -29 -6 -6 -10 -20
-10 -33 0 -13 -7 -26 -15 -29 -8 -4 -12 -10 -9 -15 3 -5 1 -9 -3 -9 -5 0 -8
-14 -7 -31 1 -20 -2 -29 -10 -26 -7 3 -13 -6 -14 -21 -1 -14 -7 -31 -12 -36
-6 -6 -10 -18 -10 -28 0 -10 -4 -18 -9 -18 -4 0 -6 -12 -3 -26 3 -19 1 -25 -7
-20 -7 5 -11 -1 -11 -14 0 -13 -4 -19 -12 -14 -7 5 -8 3 -4 -5 13 -21 -31
-124 -48 -114 -7 4 -6 1 1 -7 13 -14 6 -43 -8 -34 -5 3 -9 2 -8 -3 5 -17 -14
-83 -23 -83 -5 0 -6 -4 -3 -10 3 -5 2 -10 -4 -10 -5 0 -8 -9 -6 -20 2 -11 -1
-20 -7 -20 -5 0 -7 -7 -4 -16 3 -8 2 -12 -3 -9 -11 6 -25 -31 -17 -44 3 -5 -1
-14 -9 -21 -8 -7 -15 -18 -15 -25 0 -8 -6 -16 -12 -18 -9 -4 -9 -6 1 -6 11 -1
10 -5 -5 -17 -10 -8 -12 -13 -4 -9 10 4 10 2 -2 -8 -13 -10 -15 -16 -6 -25 9
-9 9 -12 -2 -12 -7 0 -11 -3 -7 -6 3 -3 -2 -14 -11 -25 -9 -10 -16 -31 -17
-46 0 -16 -5 -27 -11 -26 -6 1 -11 -6 -11 -15 0 -34 -3 -43 -13 -37 -6 3 -7
-1 -4 -9 3 -9 2 -16 -4 -16 -5 0 -10 -6 -9 -12 1 -37 -4 -58 -13 -53 -6 3 -10
-5 -10 -19 0 -32 -10 -57 -20 -51 -5 3 -9 -4 -9 -15 -1 -11 -1 -29 -2 -40 0
-11 -4 -18 -10 -15 -9 6 -13 -8 -10 -32 1 -7 -2 -13 -7 -13 -5 0 -8 -12 -6
-26 1 -14 -3 -27 -11 -30 -7 -3 -12 -13 -11 -22 4 -25 -16 -52 -39 -52 -11 0
-44 21 -72 48 -87 80 -113 102 -113 94 -1 -4 -10 4 -20 17 -11 13 -20 20 -20
16 0 -4 -13 7 -29 24 -16 17 -32 31 -35 31 -4 0 -22 16 -42 35 -19 19 -42 35
-50 35 -8 0 -13 4 -10 9 3 5 -7 17 -22 27 -15 9 -34 26 -43 36 -9 10 -20 18
-24 18 -4 0 -16 11 -27 25 -11 14 -23 23 -28 20 -5 -3 -11 4 -15 15 -4 11 -11
18 -16 15 -5 -4 -9 1 -9 10 0 9 -4 13 -10 10 -5 -3 -10 -1 -10 5 0 6 -5 8 -10
5 -6 -4 -9 -1 -8 7 2 7 -3 12 -10 10 -8 -1 -11 2 -7 7 3 6 -4 15 -16 21 -28
16 -56 39 -95 78 -17 17 -36 32 -43 32 -6 0 -11 5 -11 10 0 16 -40 51 -51 45
-5 -4 -8 -2 -7 3 3 10 -61 72 -74 72 -5 0 -8 7 -8 15 0 8 -4 15 -9 15 -13 0
-60 47 -54 54 4 3 0 6 -7 6 -7 0 -28 16 -46 35 -19 18 -34 31 -34 28 0 -4 -12
7 -26 25 -15 17 -31 29 -36 26 -4 -3 -8 -2 -7 3 3 19 -2 34 -10 28 -5 -3 -12
4 -16 15 -3 11 -12 20 -18 20 -7 0 -19 9 -27 20 -8 11 -21 20 -29 20 -8 0 -12
3 -8 6 8 8 -18 34 -33 34 -6 0 -8 5 -5 10 3 6 1 10 -5 10 -6 0 -30 20 -52 45
-22 24 -45 42 -51 38 -6 -3 -7 -1 -3 5 4 7 3 12 -3 12 -5 0 -13 9 -16 20 -3
11 -13 20 -21 20 -8 0 -13 4 -9 9 3 5 -4 12 -15 16 -11 3 -20 13 -20 21 0 8
-7 14 -16 14 -8 0 -13 3 -11 8 2 4 -7 17 -20 29 -13 12 -23 20 -23 17 0 -3
-32 27 -71 67 -61 63 -69 74 -53 80 14 6 15 8 4 9 -8 2 -19 2 -25 1 -5 -1 -2
5 8 13 14 10 15 15 5 19 -11 4 -11 6 0 6 7 1 10 6 7 11 -3 6 -1 10 5 10 6 0 8
5 5 10 -3 6 0 13 8 16 9 3 14 16 13 29 -2 17 1 22 12 17 11 -4 14 -1 9 10 -3
9 0 24 8 34 7 10 11 24 8 31 -3 7 0 13 7 13 6 0 8 5 5 10 -3 6 -1 10 5 10 6 0
8 5 5 11 -10 15 15 70 29 62 8 -4 8 -2 -1 7 -6 7 -8 23 -4 39 3 14 6 61 6 104
0 45 4 77 10 77 7 0 7 3 0 8 -6 4 -11 56 -12 120 0 62 -4 124 -7 138 -5 19 -4
24 6 18 10 -6 10 -4 0 9 -8 9 -10 22 -6 28 4 8 3 9 -4 5 -11 -6 -12 -3 -12 19
0 3 -7 22 -15 42 -8 20 -13 38 -11 41 3 2 -2 11 -10 20 -12 12 -13 17 -3 23
11 6 10 9 -2 14 -9 3 -27 29 -40 58 -13 29 -27 55 -32 58 -4 3 -9 16 -10 27
-1 12 -8 22 -15 22 -9 0 -12 7 -9 20 3 10 2 18 -2 17 -4 -1 -19 10 -34 26 -16
15 -25 27 -21 27 4 0 0 8 -9 18 -10 10 -14 22 -10 26 5 4 2 6 -6 4 -8 -2 -20
8 -28 22 -7 14 -13 22 -13 18 0 -12 -90 79 -90 91 0 6 -6 8 -14 5 -9 -3 -17 3
-21 15 -4 13 -11 18 -22 14 -11 -4 -14 -2 -9 5 4 7 1 12 -8 12 -8 0 -19 6 -23
13 -12 19 -109 68 -118 59 -5 -4 -5 -2 -1 5 5 10 -21 26 -47 28 -4 0 -12 6
-16 14 -5 7 -14 10 -20 7 -6 -4 -18 0 -27 8 -15 15 -34 20 -61 17 -7 -1 -13 3
-13 9 0 5 -9 10 -20 10 -11 0 -20 4 -20 8 0 5 -21 10 -46 11 -26 0 -51 4 -56
7 -27 17 -303 24 -358 10 -14 -3 -47 -9 -73 -12 -54 -7 -79 9 -86 56 -1 14 -7
27 -11 30 -5 3 -10 17 -12 32 -2 14 -9 32 -15 40 -7 7 -13 25 -15 38 -2 14 -7
31 -11 38 -5 6 -5 17 -1 24 4 7 3 8 -4 4 -7 -4 -12 -2 -12 3 0 22 -1 26 -14
46 -7 11 -12 28 -10 38 1 9 -1 17 -5 17 -4 0 -7 9 -8 20 -1 13 2 18 10 13 7
-3 4 3 -6 14 -9 11 -14 23 -10 26 3 4 2 7 -4 7 -6 0 -11 16 -11 36 0 20 -5 39
-10 43 -6 4 -11 20 -12 36 -3 97 -6 121 -15 128 -6 6 -6 10 3 14 6 2 9 10 5
16 -4 7 -8 45 -9 85 -2 53 0 71 9 66 8 -5 8 -3 -1 7 -14 15 -17 33 -4 25 5 -3
9 1 9 9 0 8 -3 12 -7 10 -4 -2 -6 11 -6 30 1 19 4 35 7 35 3 0 6 24 6 53 1 73
8 112 19 110 5 -1 9 19 8 43 0 24 3 44 8 44 4 0 8 9 8 21 0 11 4 18 9 15 5 -4
7 3 4 14 -3 12 0 20 8 20 7 0 9 3 6 7 -4 3 -2 12 4 20 6 7 8 13 3 13 -4 0 1 7
12 16 10 8 12 13 4 9 -13 -6 -13 -5 0 7 8 7 16 20 18 28 2 8 10 19 18 23 8 5
12 13 8 18 -3 6 6 21 20 34 14 13 26 28 26 34 0 5 11 18 25 29 17 14 21 22 13
25 -7 3 -3 6 10 6 13 1 20 5 17 11 -7 11 44 57 57 53 5 -2 7 1 5 5 -3 13 76
81 87 75 5 -3 6 -1 2 5 -8 13 28 35 39 24 5 -4 5 -1 1 6 -6 10 -1 14 20 11 3
0 13 8 22 18 9 10 29 24 45 32 15 8 27 18 27 23 0 5 4 7 9 3 5 -3 16 1 23 9 8
7 24 17 36 20 12 4 22 12 22 18 0 6 3 8 6 5 4 -3 16 -1 28 5 11 7 26 13 31 14
11 3 103 39 150 59 17 8 41 16 55 19 24 4 98 23 130 32 8 2 40 9 70 15 30 6
63 15 74 21 14 7 16 6 10 -4 -6 -10 -4 -10 7 -2 8 5 32 12 54 13 22 2 42 6 45
10 3 4 25 7 50 6 25 0 72 3 105 8 125 16 226 21 400 21 217 0 392 -7 401 -17
4 -4 13 -2 21 4 7 6 13 7 13 2 0 -10 54 -15 172 -16 42 -1 75 -5 72 -9 -5 -7
23 -9 119 -10 15 -1 27 -4 27 -7 0 -4 21 -8 47 -8 26 -1 49 -6 50 -10 2 -5 21
-8 44 -7 24 1 45 -4 54 -13 8 -8 15 -10 15 -5 0 12 60 8 69 -4 3 -5 24 -9 46
-9 22 1 45 -3 50 -7 6 -4 30 -8 53 -9 23 -2 42 -6 42 -10 0 -4 15 -7 34 -7 19
0 41 -4 48 -8 7 -4 19 -9 28 -10 30 -3 86 -14 118 -23 17 -5 32 -8 32 -5 0 3
9 0 21 -6 11 -6 33 -12 49 -12 16 -1 27 -4 25 -9 -3 -4 3 -6 12 -5 10 2 32 -1
48 -6 17 -5 41 -11 54 -14 14 -3 29 -8 35 -12 6 -3 29 -8 51 -10 22 -2 44 -8
49 -13 6 -5 20 -9 33 -9 13 0 23 -4 23 -9 0 -4 10 -7 23 -6 12 1 33 -2 47 -8
14 -6 32 -11 40 -12 8 -1 26 -6 40 -12 14 -6 28 -9 33 -6 4 2 7 -1 7 -7 0 -6
5 -8 10 -5 6 3 16 3 23 -2 12 -8 32 -13 55 -15 6 -1 12 -5 12 -10 0 -5 5 -6
11 -3 10 7 47 -4 96 -28 13 -6 26 -8 29 -4 4 3 13 0 20 -8 8 -8 23 -12 34 -10
11 2 22 0 25 -6 4 -5 15 -9 26 -9 10 0 19 -5 19 -12 0 -6 3 -9 6 -5 3 3 30 -3
59 -13 29 -10 56 -16 59 -13 3 4 6 0 6 -7 0 -7 3 -10 7 -7 3 4 12 2 20 -4 7
-6 13 -8 13 -4 0 4 6 3 13 -3 7 -6 26 -13 42 -16 15 -3 31 -9 34 -14 3 -5 14
-8 23 -6 10 1 20 -2 24 -7 3 -5 18 -9 34 -9 20 0 31 6 35 20 3 11 11 20 16 20
5 0 9 6 7 13 -4 19 11 67 22 67 5 0 7 7 4 15 -4 8 -1 15 5 15 6 0 8 7 5 15 -4
8 -1 15 5 15 6 0 11 11 11 24 0 13 7 29 15 36 8 6 14 15 13 18 -2 21 3 43 10
38 4 -2 8 4 8 14 0 10 -4 16 -8 14 -7 -5 -12 10 -9 28 0 3 -7 5 -17 4 -9 -2
-30 1 -47 6 -38 12 -76 20 -92 21 -7 0 -13 4 -13 9 0 4 -16 8 -36 8 -24 0 -33
4 -28 12 4 6 3 8 -3 5 -5 -3 -27 -1 -49 4 -21 5 -50 12 -64 15 -14 3 -26 9
-28 15 -2 5 -14 6 -27 3 -12 -3 -26 -1 -30 5 -3 6 -11 9 -16 5 -5 -3 -16 0
-24 6 -8 7 -15 10 -15 7 0 -3 -22 1 -50 8 -27 7 -50 11 -50 8 0 -4 -8 0 -17 8
-10 8 -30 14 -45 13 -16 0 -28 2 -28 5 0 4 -12 8 -27 10 -43 4 -68 8 -68 10 0
2 -8 4 -17 7 -10 2 -24 6 -30 7 -28 8 -113 21 -121 19 -4 -1 -18 3 -30 10 -12
6 -37 11 -54 11 -18 0 -33 3 -33 6 0 4 -15 8 -33 9 -19 1 -48 7 -66 12 -17 5
-40 7 -51 5 -11 -2 -22 0 -25 6 -4 5 -19 9 -36 9 -16 0 -29 4 -29 8 0 4 -15 8
-32 8 -48 1 -88 8 -88 14 0 3 -18 5 -40 4 -22 0 -40 4 -40 9 0 6 -3 8 -6 4 -3
-3 -17 -2 -30 3 -14 6 -26 6 -29 0 -4 -6 -17 -5 -33 3 -15 7 -43 12 -62 12
-19 -1 -41 3 -49 9 -12 9 -13 8 -6 -4 7 -13 6 -13 -7 -2 -8 7 -40 15 -70 17
-66 7 -95 12 -107 20 -5 3 -13 1 -16 -5 -4 -7 -12 -7 -18 -2 -7 4 -23 7 -37 6
-14 -2 -32 0 -40 3 -17 6 -50 10 -161 16 -43 3 -82 7 -87 11 -6 3 -13 2 -17
-4 -3 -5 -11 -10 -16 -10 -6 0 -7 5 -4 10 3 6 1 10 -4 10 -6 0 -11 -6 -11 -12
0 -8 -3 -9 -8 -3 -11 15 -25 17 -202 20 -91 1 -165 4 -165 5 0 1 -23 3 -52 3
-28 1 -49 -1 -46 -5 2 -5 0 -8 -6 -8 -5 0 -12 6 -14 13 -4 9 -6 9 -6 -1 -1 -9
-6 -10 -20 -3 -10 6 -22 7 -26 3 -3 -4 -68 -7 -144 -8 -75 0 -142 -4 -148 -7
-7 -4 -14 -3 -18 3 -4 6 -12 7 -18 3 -19 -12 -46 -15 -134 -17 -46 0 -83 -4
-83 -7 0 -4 -10 -5 -22 -5 -13 1 -27 0 -33 -3 -5 -3 -23 -7 -40 -7 -26 -1 -57
-6 -115 -19 -8 -2 -25 -4 -38 -4 -13 -1 -21 -4 -19 -8 3 -5 -14 -8 -36 -8 -23
1 -45 -3 -48 -8 -3 -4 -22 -9 -42 -10 -21 -1 -37 -4 -37 -7 0 -3 -8 -7 -17 -8
-35 -3 -59 -8 -68 -14 -6 -3 -25 -9 -42 -13 -18 -3 -33 -11 -33 -17 0 -7 -5
-6 -14 1 -10 9 -16 8 -26 -4 -7 -8 -22 -15 -34 -15 -12 0 -27 -5 -34 -12 -7
-7 -12 -9 -12 -5 0 3 -20 -2 -45 -13 -25 -11 -45 -17 -45 -15 0 3 -16 -4 -36
-15 -19 -11 -39 -18 -45 -15 -5 4 -9 3 -9 -2 0 -10 -87 -48 -103 -45 -4 1 -7
-2 -7 -6 0 -8 -47 -34 -60 -34 -3 0 -12 -6 -21 -14 -9 -8 -26 -16 -37 -17 -12
0 -19 -3 -17 -6 6 -6 -38 -37 -48 -33 -4 1 -10 -5 -13 -13 -4 -8 -13 -15 -20
-15 -8 0 -17 -7 -20 -15 -4 -8 -10 -12 -15 -9 -5 3 -9 0 -9 -6 0 -6 -4 -9 -8
-6 -5 3 -16 -6 -26 -19 -10 -14 -22 -22 -27 -19 -5 3 -9 0 -9 -6 0 -6 -5 -8
-12 -4 -8 5 -9 2 -5 -9 4 -10 2 -17 -5 -17 -6 0 -24 -13 -40 -30 -15 -16 -33
-30 -38 -30 -6 0 -10 -7 -10 -15 0 -8 -7 -15 -16 -15 -8 0 -12 -5 -9 -10 3 -6
-4 -14 -17 -19 -13 -6 -19 -10 -13 -10 5 -1 -4 -14 -20 -31 -45 -44 -64 -68
-59 -73 2 -2 -2 -10 -11 -17 -8 -7 -15 -19 -15 -27 0 -7 -6 -16 -14 -19 -8 -3
-16 -15 -19 -26 -3 -11 -10 -17 -16 -13 -7 3 -8 0 -5 -9 3 -9 1 -16 -5 -16 -6
0 -10 -6 -8 -12 1 -7 -2 -12 -8 -11 -5 1 -11 -10 -12 -24 0 -14 -7 -29 -13
-33 -7 -4 -9 -13 -6 -19 4 -6 4 -11 -1 -11 -10 0 -33 -49 -33 -71 0 -9 -7 -19
-15 -22 -8 -4 -12 -15 -10 -27 5 -24 -4 -52 -14 -46 -3 2 -12 -2 -19 -10 -7
-8 -8 -14 -2 -14 17 0 4 -99 -17 -123 -10 -11 -13 -17 -6 -14 8 5 10 -5 6 -35
-3 -24 -6 -69 -6 -100 -1 -32 -6 -58 -12 -58 -7 0 -7 -3 0 -8 13 -9 13 -75 1
-84 -6 -4 -6 -12 1 -20 6 -7 10 -37 9 -66 0 -28 2 -52 5 -52 4 0 3 -16 -1 -35
-5 -20 -4 -33 1 -29 5 3 9 -2 9 -11 0 -10 -5 -14 -13 -9 -9 6 -9 4 0 -7 7 -7
13 -21 13 -31 0 -10 4 -18 8 -18 4 0 7 -30 7 -66 0 -36 4 -68 9 -71 5 -4 6 0
1 7 -5 9 -4 11 4 6 7 -5 11 -18 10 -29 -1 -12 2 -30 6 -41 5 -11 3 -21 -5 -26
-9 -6 -7 -10 9 -15 19 -6 26 -27 22 -63 -1 -7 4 -19 12 -27 8 -7 13 -25 12
-39 -2 -14 1 -26 7 -26 6 0 8 -6 5 -14 -3 -8 0 -16 7 -19 6 -3 13 -22 14 -43
2 -21 10 -42 18 -47 8 -5 12 -12 9 -18 -4 -5 -1 -9 4 -9 6 0 11 -9 11 -19 0
-11 5 -23 10 -26 6 -4 8 -11 4 -16 -3 -5 -10 -7 -15 -4 -5 4 -9 2 -9 -4 0 -17
-81 -91 -100 -91 -9 0 -14 -14 -11 -32 0 -4 -5 -5 -13 -2 -7 3 -16 -2 -19 -10
-4 -9 -14 -16 -22 -16 -9 0 -14 -4 -10 -10 6 -10 -29 -50 -46 -50 -5 0 -7 -4
-4 -10 3 -5 2 -10 -2 -10 -5 0 -24 -21 -41 -46 -18 -25 -27 -42 -21 -38 8 5 9
3 5 -5 -5 -7 -14 -10 -22 -7 -11 4 -12 1 -5 -12 7 -14 5 -21 -10 -30 -10 -7
-19 -19 -19 -28 0 -10 -6 -14 -14 -11 -9 4 -12 0 -9 -13 6 -21 -14 -63 -26
-56 -4 3 -6 -6 -3 -20 3 -18 -2 -30 -17 -41 -17 -12 -20 -18 -10 -29 8 -10 8
-14 1 -14 -6 0 -9 -6 -6 -14 3 -7 -2 -20 -10 -29 -8 -8 -13 -25 -11 -38 3 -13
-2 -28 -13 -36 -11 -10 -12 -12 -2 -8 10 4 9 2 -2 -8 -10 -8 -15 -17 -12 -20
3 -3 0 -15 -6 -27 -8 -15 -8 -20 -1 -16 14 9 11 -46 -4 -56 -6 -5 -5 -8 3 -8
7 0 10 -5 6 -11 -4 -6 -5 -48 -4 -93 1 -44 3 -113 3 -152 1 -59 3 -71 15 -66
10 3 13 1 8 -6 -3 -6 -2 -13 2 -16 5 -3 8 -18 6 -32 -1 -15 4 -33 12 -41 8 -8
12 -18 9 -23 -3 -5 -1 -11 4 -15 7 -3 7 -15 1 -30 -7 -20 -6 -23 8 -20 13 2
18 -5 19 -28 1 -17 7 -33 12 -37 6 -3 12 -16 14 -27 2 -12 12 -32 23 -44 12
-15 14 -20 4 -15 -9 5 -8 2 2 -7 10 -8 15 -17 11 -20 -3 -4 -2 -7 4 -7 5 0 18
-16 29 -37 10 -20 29 -47 41 -61 13 -13 21 -28 18 -32 -3 -4 5 -10 16 -13 12
-3 18 -10 15 -16 -4 -5 3 -12 14 -16 11 -3 20 -11 20 -17 0 -11 60 -68 73 -68
4 0 7 -7 7 -15 0 -8 6 -14 13 -13 6 2 11 -5 11 -14 -1 -10 2 -18 7 -18 5 0 9
5 9 10 0 6 9 2 19 -7 38 -35 49 -42 55 -36 3 4 6 -1 6 -10 0 -10 8 -17 20 -17
11 0 20 -4 20 -10 0 -5 9 -10 20 -10 11 0 20 -4 20 -10 0 -5 7 -10 16 -10 8 0
13 -4 10 -8 -3 -5 0 -9 7 -10 24 -2 87 -27 87 -34 0 -5 9 -8 20 -8 11 0 20 -5
20 -11 0 -5 3 -8 8 -6 4 3 18 0 32 -6 37 -15 70 -24 130 -34 19 -3 38 -11 42
-17 5 -8 8 -7 8 2 0 9 5 10 18 4 26 -14 332 -12 332 2 0 6 5 4 10 -4 7 -11 10
-11 10 -2 0 7 4 11 9 7 5 -3 12 -1 16 5 4 6 11 8 16 4 5 -3 15 -1 22 4 7 5 20
8 30 7 9 -2 17 1 17 7 0 6 11 8 25 5 14 -2 23 -2 20 1 -3 3 16 13 43 22 70 25
159 67 167 80 3 5 10 8 15 5 5 -3 11 -1 14 4 3 5 16 7 27 4 25 -7 89 -66 89
-83 0 -6 5 -8 10 -5 6 3 10 0 10 -7 0 -8 15 -29 34 -48 19 -19 32 -39 28 -45
-3 -5 -2 -7 3 -3 8 7 25 -9 55 -51 8 -12 20 -21 27 -21 7 0 13 -6 13 -14 0 -8
7 -17 16 -20 8 -3 13 -10 9 -15 -3 -5 4 -12 15 -16 11 -4 18 -10 15 -15 -3 -5
6 -17 20 -26 13 -9 22 -21 18 -27 -3 -5 -2 -7 4 -4 11 7 63 -46 63 -65 0 -6 3
-8 6 -5 7 7 44 -30 44 -45 0 -4 6 -8 14 -8 8 0 18 -9 21 -21 4 -11 9 -18 12
-15 4 3 17 -9 30 -26 12 -18 23 -29 23 -25 0 3 10 -4 23 -16 13 -12 22 -25 20
-29 -2 -5 4 -8 13 -8 10 0 14 -3 11 -7 -4 -3 4 -14 19 -23 14 -10 25 -20 25
-24 -1 -3 2 -6 5 -5 4 0 14 -11 24 -25 9 -15 19 -24 22 -20 4 3 9 -3 12 -14 4
-10 17 -25 31 -32 13 -7 22 -17 19 -22 -3 -4 -1 -8 4 -8 13 0 92 -77 92 -90 0
-5 8 -6 17 -3 12 5 15 2 10 -10 -5 -12 -1 -17 13 -17 11 0 20 -5 20 -10 0 -13
68 -80 81 -80 6 0 7 -4 4 -10 -3 -5 -2 -10 3 -10 5 0 35 -25 67 -55 31 -30 62
-55 67 -55 5 0 6 -4 3 -10 -3 -5 -2 -10 2 -10 16 0 83 -67 75 -74 -4 -4 -2 -6
3 -4 14 4 57 -27 48 -35 -3 -4 0 -7 8 -7 8 0 21 -9 29 -20 8 -11 20 -20 27
-20 7 0 13 -8 13 -17 0 -9 3 -14 6 -10 3 3 28 -16 56 -44 27 -27 51 -49 53
-49 3 0 13 -8 23 -17 35 -34 124 -108 138 -116 8 -5 11 -13 8 -19 -4 -7 -2 -8
4 -4 7 4 12 2 12 -5 0 -7 3 -9 7 -6 3 4 23 -11 43 -32 20 -21 47 -44 59 -50
12 -7 19 -16 16 -22 -4 -5 -3 -9 2 -8 21 4 33 -2 33 -18 0 -9 3 -14 6 -10 4 3
12 1 19 -6 7 -7 32 -28 55 -47 24 -19 52 -43 63 -52 11 -10 24 -18 28 -18 5 0
15 -12 23 -27 8 -16 15 -22 16 -15 0 7 17 -4 38 -25 40 -40 45 -43 63 -43 5 0
8 -4 5 -8 -3 -5 6 -15 19 -22 14 -7 25 -17 25 -22 0 -4 4 -8 10 -8 9 0 29 -15
64 -45 39 -35 96 -75 107 -75 7 0 10 -3 6 -6 -7 -8 17 -34 32 -34 6 0 16 -9
23 -20 7 -11 17 -20 23 -20 10 0 41 -24 103 -80 12 -12 22 -17 22 -13 0 3 14
-6 30 -22 17 -16 30 -25 30 -21 0 4 11 -3 24 -16 13 -13 36 -32 52 -43 15 -11
36 -28 45 -37 10 -9 20 -14 23 -10 3 3 6 0 6 -6 0 -7 4 -12 10 -12 6 0 18 -8
28 -17 10 -10 29 -25 42 -33 13 -8 32 -23 42 -32 10 -10 22 -18 26 -18 4 0 14
-9 22 -19 7 -11 17 -18 22 -15 4 3 8 0 8 -6 0 -6 4 -9 8 -6 5 3 15 -4 22 -15
8 -10 20 -19 27 -19 7 0 13 -3 13 -7 0 -5 25 -24 55 -42 30 -19 55 -39 55 -43
0 -4 7 -8 15 -8 8 0 15 -4 15 -10 0 -5 7 -10 15 -10 8 0 15 -4 15 -10 0 -5 5
-10 11 -10 13 0 40 -26 33 -33 -3 -3 3 -4 13 -3 11 0 17 -5 15 -14 -2 -8 0
-12 4 -7 10 9 41 -11 118 -75 22 -18 36 -26 32 -18 -4 8 0 6 8 -4 9 -11 16
-17 16 -12 0 4 11 -4 25 -18 13 -13 34 -27 45 -31 11 -3 20 -11 20 -16 0 -5 7
-9 16 -9 9 0 12 -5 8 -12 -4 -6 -3 -8 4 -4 6 3 17 -1 25 -9 9 -8 20 -15 25
-15 6 0 13 -7 16 -16 4 -9 9 -14 12 -11 4 3 13 -1 21 -9 8 -8 19 -11 25 -8 6
4 8 3 5 -3 -4 -5 6 -16 21 -24 15 -8 31 -20 35 -27 5 -7 12 -10 18 -7 5 4 9 1
9 -4 0 -6 6 -11 13 -11 7 0 20 -9 30 -20 9 -11 26 -20 37 -20 12 0 19 -4 16
-8 -2 -4 9 -14 25 -21 16 -7 26 -17 23 -23 -4 -6 -2 -8 3 -5 6 4 16 0 23 -8 7
-8 19 -15 26 -15 8 0 14 -4 14 -10 0 -5 7 -10 15 -10 8 0 15 -4 15 -10 0 -5 7
-10 15 -10 7 0 19 -8 24 -17 6 -10 11 -14 11 -10 0 6 112 -64 146 -92 7 -6 15
-7 18 -4 3 4 6 -1 6 -10 0 -10 5 -14 15 -11 8 4 15 1 15 -5 0 -6 5 -11 11 -11
6 0 17 -7 26 -15 8 -8 19 -13 24 -10 5 4 9 -1 9 -10 0 -9 5 -13 10 -10 6 3 10
1 10 -5 0 -6 4 -9 9 -6 5 3 11 -1 15 -9 3 -8 15 -15 26 -15 11 0 20 -4 20 -9
0 -5 14 -14 30 -21 17 -7 30 -16 30 -21 0 -5 7 -9 15 -9 8 0 15 -5 15 -11 0
-5 5 -7 10 -4 6 3 10 1 10 -5 0 -6 5 -8 10 -5 6 3 10 2 10 -2 0 -5 27 -25 60
-44 33 -18 60 -38 60 -42 0 -5 5 -5 10 -2 6 3 10 2 10 -3 0 -6 11 -13 25 -16
14 -4 25 -11 25 -16 0 -6 7 -10 16 -10 9 0 28 -12 42 -27 14 -16 26 -26 26
-24 2 9 46 -11 46 -21 0 -6 3 -9 6 -5 4 3 13 -1 21 -9 8 -8 19 -12 24 -9 5 4
9 -1 9 -9 0 -9 3 -15 8 -14 12 4 72 -24 72 -33 0 -5 6 -9 14 -9 8 0 22 -10 30
-22 9 -12 16 -19 16 -14 0 5 11 1 25 -8 14 -9 25 -13 25 -9 0 5 4 3 8 -3 8
-13 69 -46 78 -42 3 2 10 -5 15 -15 6 -9 14 -15 20 -12 5 4 9 2 9 -3 0 -4 16
-14 35 -22 19 -7 32 -17 29 -22 -3 -4 4 -8 15 -8 12 0 21 -5 21 -11 0 -8 5 -7
15 1 13 11 14 10 9 -5 -5 -13 -4 -16 4 -11 7 4 12 4 12 -1 0 -4 23 -19 50 -32
28 -14 50 -29 50 -33 0 -4 8 -8 19 -8 10 0 24 -7 31 -15 7 -8 16 -12 21 -9 5
3 9 2 9 -3 0 -4 10 -13 23 -19 106 -53 147 -76 147 -84 0 -5 7 -7 15 -4 8 4
17 -1 21 -10 3 -9 10 -14 14 -11 5 3 11 1 15 -5 4 -6 11 -8 16 -5 5 4 9 1 9
-4 0 -6 7 -11 15 -11 8 0 15 -4 15 -10 0 -5 9 -10 20 -10 11 0 20 -3 20 -8 0
-4 9 -13 21 -20 17 -11 20 -11 14 0 -3 7 1 4 9 -6 9 -11 19 -17 22 -13 4 3 15
-4 26 -16 11 -12 17 -17 14 -10 -5 8 0 8 19 0 14 -7 25 -16 25 -20 0 -5 5 -5
10 -2 6 3 10 2 10 -4 0 -9 26 -21 44 -20 5 0 12 -4 15 -9 6 -9 91 -55 101 -55
3 1 17 -8 32 -18 14 -10 30 -19 36 -19 5 0 15 -7 23 -16 7 -8 21 -13 31 -11
11 3 18 0 18 -10 0 -8 5 -11 10 -8 6 3 10 1 10 -6 0 -7 3 -9 6 -6 6 6 49 -14
83 -37 7 -6 20 -11 28 -12 8 -2 23 -10 32 -18 10 -9 22 -16 27 -16 6 0 50 -20
99 -45 48 -24 93 -41 99 -38 6 3 8 3 4 -2 -9 -10 40 -37 53 -29 5 3 9 -3 9
-12 0 -10 3 -15 6 -11 4 3 21 -1 38 -10 17 -10 34 -16 39 -15 4 1 7 -2 7 -8 0
-5 7 -7 15 -4 8 4 15 1 15 -7 0 -7 3 -10 6 -6 4 3 13 -1 21 -9 8 -8 18 -12 22
-9 5 2 17 -3 27 -13 11 -9 26 -18 34 -20 31 -6 70 -25 70 -34 0 -5 6 -8 13 -7
15 3 69 -22 79 -36 4 -5 8 -6 8 -1 0 6 7 1 16 -10 8 -10 13 -13 9 -6 -9 18 9
14 39 -9 14 -11 26 -17 26 -12 0 4 6 1 13 -7 7 -8 23 -17 37 -18 14 -2 26 -8
28 -13 2 -5 11 -9 21 -9 9 0 27 -7 39 -16 12 -8 22 -12 22 -8 0 4 7 -1 16 -12
8 -10 13 -14 10 -7 -4 6 13 1 36 -11 24 -12 56 -26 71 -30 17 -4 25 -11 21
-18 -4 -6 -3 -8 3 -5 10 6 111 -29 123 -43 3 -3 14 -7 25 -8 11 -2 23 -9 27
-15 4 -7 8 -8 8 -3 0 5 7 3 15 -4 8 -7 15 -10 15 -6 0 4 10 0 23 -9 13 -8 27
-12 30 -8 4 3 7 1 7 -5 0 -7 7 -12 15 -12 9 0 30 -8 48 -17 18 -9 38 -16 45
-15 6 2 12 -2 12 -8 0 -6 5 -8 10 -5 6 3 10 1 10 -5 0 -6 4 -8 10 -5 5 3 10 1
10 -5 0 -6 4 -9 9 -5 6 3 26 -4 45 -15 20 -11 36 -17 36 -14 0 4 11 -1 25 -10
13 -9 34 -16 45 -16 14 0 19 -4 14 -12 -4 -6 -3 -8 2 -5 6 3 25 -1 44 -10 55
-24 72 -31 115 -45 22 -7 48 -18 59 -24 10 -7 25 -10 32 -7 8 3 14 0 14 -6 0
-6 9 -11 20 -11 11 0 20 -5 20 -11 0 -5 5 -7 10 -4 6 4 21 0 33 -8 12 -8 30
-13 40 -11 9 1 17 -4 17 -11 0 -8 8 -12 20 -10 11 2 20 -1 20 -7 0 -6 3 -9 6
-5 3 3 26 -3 50 -13 24 -11 46 -20 49 -20 3 0 10 0 16 0 5 0 8 -4 5 -9 -4 -5
2 -7 13 -4 11 3 21 -2 24 -11 4 -9 12 -13 20 -11 7 3 43 -6 80 -20 37 -13 67
-21 67 -17 0 4 5 -1 11 -10 6 -10 16 -15 26 -11 9 4 21 -1 29 -12 9 -12 14
-14 14 -6 0 10 4 11 13 3 7 -6 25 -13 41 -16 15 -3 35 -11 44 -18 13 -11 14
-11 7 2 -8 13 -7 13 9 0 18 -14 35 -20 71 -23 11 -1 22 -5 25 -9 3 -3 14 -8
25 -10 11 -1 22 -6 25 -9 3 -3 32 -13 65 -23 33 -9 67 -21 75 -25 8 -4 23 -7
33 -5 9 1 15 -2 11 -7 -4 -8 33 -14 59 -10 4 0 7 -3 7 -9 0 -5 9 -10 20 -10
11 0 20 -6 20 -12 0 -10 3 -9 9 1 6 9 11 10 15 2 4 -6 15 -11 25 -11 10 0 31
-6 46 -14 15 -8 38 -13 51 -11 14 1 24 -3 24 -10 0 -8 8 -11 20 -8 11 3 26 1
33 -5 7 -6 25 -12 39 -14 15 -2 30 -7 34 -11 4 -4 18 -7 31 -7 13 0 31 -4 41
-9 24 -13 92 -32 120 -34 12 -1 22 -5 22 -9 0 -4 16 -8 35 -8 19 0 35 -4 35
-10 0 -5 16 -10 35 -10 19 0 35 -4 35 -9 0 -5 8 -8 18 -6 9 1 23 -2 30 -8 7
-5 15 -7 19 -4 3 4 13 1 21 -6 13 -10 14 -9 8 1 -6 11 -4 11 13 3 12 -6 30
-16 42 -22 16 -8 19 -8 14 1 -5 8 -2 9 11 2 11 -5 35 -14 54 -20 33 -10 49
-14 118 -27 15 -3 34 -8 42 -12 8 -3 31 -8 50 -10 19 -2 39 -7 45 -12 5 -4 26
-8 45 -10 19 -2 37 -6 40 -10 3 -3 14 -7 25 -8 11 -1 32 -5 48 -8 15 -3 42 -7
60 -10 17 -3 39 -9 47 -12 8 -3 29 -7 45 -9 17 -2 41 -8 55 -13 14 -4 37 -7
53 -7 15 1 27 -2 27 -7 0 -4 4 -6 9 -2 5 3 12 1 15 -3 3 -5 19 -8 36 -7 16 1
30 -2 30 -7 0 -5 5 -6 10 -3 6 3 10 3 10 -2 0 -4 17 -9 38 -9 20 -1 48 -5 62
-9 14 -3 47 -9 73 -11 26 -3 58 -8 70 -13 12 -4 37 -7 55 -6 17 0 32 -2 32 -5
0 -3 17 -7 38 -8 20 -2 48 -5 62 -7 14 -2 29 -3 33 -4 5 -1 5 -6 1 -13 -5 -7
-3 -8 7 -2 14 8 84 8 144 -2 17 -2 60 -6 97 -8 37 -2 72 -7 77 -11 6 -3 11 -1
11 5 0 6 5 8 13 3 14 -9 32 -13 70 -15 15 0 27 -5 27 -10 0 -5 6 -6 13 -1 17
11 57 12 63 1 3 -4 11 -5 17 -1 15 9 56 12 61 4 2 -3 27 -6 55 -6 28 1 51 -3
51 -7 0 -4 5 -8 11 -8 5 0 7 5 3 11 -5 8 -1 8 14 0 27 -14 35 -14 26 1 -5 9
-2 9 9 -1 13 -10 17 -10 17 -1 0 9 3 10 13 1 10 -8 17 -7 27 2 10 9 11 9 6 0
-4 -7 -2 -13 3 -13 6 0 11 4 11 8 0 5 12 8 28 7 15 -1 32 2 39 7 7 5 14 5 18
-2 3 -6 12 -7 18 -3 19 11 47 11 47 -1 0 -7 3 -7 8 -1 4 6 25 11 47 11 48 2
110 11 137 20 15 4 18 3 13 -6 -6 -9 -3 -9 13 -1 10 6 29 8 41 6 11 -2 21 -1
21 3 0 4 21 8 47 10 26 2 52 7 58 12 5 4 29 7 53 7 23 -1 42 1 42 4 0 4 16 10
35 13 19 4 35 11 35 15 0 5 6 9 13 8 45 -1 68 4 61 15 -5 8 -2 9 10 5 9 -4 19
-1 21 6 3 6 22 13 42 14 21 1 39 7 41 13 2 5 8 8 13 4 5 -3 9 -1 9 4 0 5 18
15 40 22 22 7 40 17 40 22 0 5 5 6 10 3 6 -3 10 -1 10 5 0 7 6 10 14 7 8 -3
17 1 20 9 3 9 10 12 16 9 6 -3 13 1 16 9 3 9 12 16 18 16 7 0 22 9 34 20 12
12 22 17 22 13 0 -4 7 3 16 15 8 12 22 22 30 22 8 0 17 7 20 15 3 8 14 17 25
20 11 4 16 11 13 17 -5 7 -1 9 9 5 9 -3 16 -3 16 1 -3 18 2 35 8 29 7 -7 37
31 38 48 1 6 6 9 13 8 11 -3 16 10 13 30 0 4 4 7 10 7 5 0 7 5 4 10 -3 6 1 10
9 10 8 0 18 5 22 12 4 7 3 8 -4 4 -8 -5 -10 -2 -6 8 3 9 10 13 15 10 8 -5 13
9 10 29 0 4 7 7 17 7 14 0 15 2 2 10 -12 7 -12 10 -1 10 7 0 11 6 8 14 -4 9 1
17 12 21 11 3 17 15 17 33 -1 16 4 26 12 25 6 -2 13 3 13 10 3 30 6 74 8 100
0 15 7 27 14 27 8 0 12 19 11 66 -1 58 1 67 20 74 11 5 16 9 9 9 -12 1 -12 18
0 39 5 7 3 12 -3 12 -7 0 -8 6 -1 18 5 10 6 24 1 32 -5 8 -5 21 0 30 5 9 5 22
0 30 -6 9 -5 17 3 22 9 6 9 8 -1 8 -7 0 -10 5 -7 10 3 6 1 10 -5 10 -6 0 -8 5
-5 10 3 6 2 10 -3 10 -5 0 -9 32 -10 72 -1 42 -6 74 -13 79 -6 4 -13 36 -14
71 -1 36 -8 75 -14 87 -7 12 -9 26 -6 31 3 5 1 11 -4 15 -5 3 -8 14 -6 25 3
13 -1 17 -11 13 -14 -5 -17 8 -16 85 0 27 -2 31 -13 22 -11 -9 -12 -7 -8 9 3
13 1 21 -6 21 -7 0 -9 5 -5 12 10 15 13 47 5 46 -26 -2 -33 3 -22 16 9 11 9
16 1 21 -7 4 -9 16 -7 27 4 14 2 18 -9 14 -9 -3 -14 1 -14 14 0 32 -1 34 -17
53 -9 9 -18 29 -19 44 -2 14 -8 30 -15 34 -7 4 -9 14 -6 23 4 10 1 19 -8 22
-8 4 -12 10 -9 15 3 5 0 9 -5 9 -6 0 -11 5 -11 11 0 5 6 7 13 3 6 -4 4 2 -6
13 -9 11 -14 23 -10 26 3 4 1 7 -6 7 -7 0 -9 5 -6 10 3 6 1 10 -5 10 -7 0 -9
8 -5 20 5 15 3 18 -9 14 -12 -5 -16 0 -16 20 0 14 -4 26 -10 26 -5 0 -9 6 -7
13 1 6 -4 11 -12 9 -12 -3 -12 0 -1 12 8 11 9 16 1 16 -6 0 -11 5 -11 11 0 5
6 7 13 3 7 -4 9 -3 4 2 -5 5 -14 9 -19 9 -6 0 -13 6 -16 14 -3 9 0 11 9 6 8
-5 5 3 -7 16 -20 22 -36 54 -38 72 -1 4 -5 11 -11 15 -5 4 -10 14 -10 22 0 8
-6 14 -13 12 -8 -1 -12 3 -9 10 2 7 -4 28 -15 45 -11 18 -17 36 -15 40 7 11
-19 33 -29 25 -4 -4 -4 1 -1 10 3 10 0 24 -8 32 -8 8 -15 19 -15 25 0 6 -5 11
-11 11 -5 0 -7 5 -4 10 3 6 1 10 -5 10 -6 0 -8 5 -5 10 3 6 2 10 -3 10 -6 0
-9 8 -8 18 0 9 -5 16 -11 14 -11 -2 -19 26 -14 52 1 5 -5 6 -13 3 -11 -4 -14
0 -11 14 3 15 0 19 -11 15 -8 -3 -12 -2 -9 3 3 5 1 12 -5 16 -5 3 -10 15 -10
26 0 11 -4 17 -10 14 -5 -3 -10 3 -10 14 0 13 -7 21 -17 21 -15 0 -16 2 -3 10
13 8 12 10 -4 10 -11 0 -16 5 -13 14 3 8 -1 17 -9 20 -8 3 -14 9 -13 13 4 21
-2 33 -16 33 -8 0 -14 3 -13 8 4 15 -14 52 -23 46 -5 -3 -9 -2 -8 3 4 22 -2
43 -11 38 -9 -6 -15 16 -11 39 1 5 -6 6 -15 2 -11 -4 -15 -2 -11 8 7 17 -16
39 -28 28 -5 -4 -5 -2 -1 5 4 7 -2 21 -12 31 -10 10 -18 26 -16 35 1 9 -1 15
-4 14 -4 -1 -8 2 -9 6 -1 5 -11 17 -22 26 -12 10 -21 28 -21 40 0 12 -4 20 -9
16 -11 -6 -42 35 -35 47 3 4 0 8 -5 8 -6 0 -11 7 -11 16 0 8 -4 12 -10 9 -5
-3 -10 -1 -10 6 0 7 -10 24 -22 37 -13 14 -17 22 -9 17 9 -5 12 -4 7 3 -4 7
-14 12 -22 12 -9 0 -14 7 -12 18 2 9 -3 16 -9 14 -7 -1 -13 5 -13 13 0 8 -5
15 -11 15 -5 0 -8 4 -5 9 3 5 -1 11 -9 15 -8 3 -15 12 -15 21 0 8 -4 15 -10
15 -5 0 -10 7 -10 15 0 9 -7 18 -15 21 -8 4 -12 10 -9 15 3 5 -3 9 -13 9 -12
0 -19 8 -20 21 -1 11 -14 31 -29 44 -14 12 -23 28 -20 34 7 10 -6 16 -27 12
-5 -1 -7 4 -5 11 2 6 -4 21 -14 32 -42 48 -48 56 -48 65 0 5 -7 12 -16 15 -8
3 -12 10 -9 16 3 5 -1 10 -10 10 -9 0 -14 3 -12 8 6 9 -19 33 -27 25 -3 -4 -6
1 -6 11 0 9 -18 34 -39 55 -22 22 -37 42 -34 45 3 3 -2 8 -11 12 -9 3 -16 11
-16 18 0 6 -14 22 -30 36 -17 14 -30 29 -30 35 0 6 -9 17 -20 25 -11 8 -20 21
-20 28 0 8 -6 12 -14 9 -11 -4 -13 -1 -9 10 4 11 2 14 -5 9 -7 -4 -12 -2 -12
3 0 6 -8 19 -17 29 -10 10 -24 28 -32 40 -8 11 -18 19 -23 16 -4 -3 -8 2 -8
10 0 9 -5 16 -11 16 -5 0 -7 5 -4 10 3 6 0 10 -8 10 -8 0 -22 10 -33 22 -16
19 -16 20 -1 9 9 -8 20 -11 24 -7 3 3 1 6 -5 6 -16 0 -93 80 -87 90 3 6 0 7
-8 5 -7 -3 -22 5 -33 17 -18 22 -18 22 0 8 18 -14 18 -14 6 7 -8 11 -20 19
-27 16 -11 -5 -17 7 -14 29 0 4 -8 9 -18 13 -24 7 -73 70 -63 80 4 5 -1 5 -11
2 -11 -4 -17 -2 -15 6 2 6 -2 14 -7 15 -20 7 -35 25 -28 35 3 5 2 7 -4 4 -5
-3 -15 3 -23 13 -8 10 -18 16 -23 13 -6 -4 -8 3 -5 15 4 13 2 20 -3 16 -10 -6
-79 63 -79 79 0 4 -4 6 -9 3 -9 -6 -47 44 -43 57 1 4 -3 7 -9 7 -15 0 -39 26
-32 34 4 3 -1 6 -10 6 -9 0 -17 8 -17 17 0 9 -3 14 -6 10 -3 -3 -14 2 -25 11
-11 9 -23 16 -27 15 -4 -1 -14 4 -22 10 -8 6 -12 8 -8 3 4 -5 3 -18 -3 -29 -9
-15 -8 -18 2 -12 8 5 10 4 5 -4 -12 -19 -14 -61 -4 -61 5 0 6 -5 2 -12 -10
-16 -12 -78 -2 -84 5 -3 5 -10 2 -16 -10 -16 -11 -158 0 -158 4 0 3 -7 -4 -15
-12 -14 -4 -20 22 -16 4 0 5 -8 3 -19 -2 -11 1 -20 6 -20 15 0 39 -26 32 -34
-4 -3 -1 -6 6 -6 16 0 42 -26 34 -34 -4 -3 1 -6 10 -6 10 0 17 -4 17 -10 0 -5
7 -10 15 -10 14 0 20 -12 16 -34 -1 -5 6 -6 15 -2 12 4 15 2 10 -9 -3 -8 0
-15 7 -15 13 0 87 -77 87 -91 0 -5 7 -6 15 -3 11 5 13 2 9 -10 -4 -10 -1 -16
9 -16 8 0 18 -7 21 -16 3 -8 10 -12 16 -9 6 3 7 -1 4 -9 -4 -10 -1 -16 8 -16
7 0 19 -9 26 -20 7 -12 17 -18 22 -15 5 3 7 -4 5 -15 -2 -11 0 -18 4 -15 5 2
14 -2 21 -10 7 -8 16 -13 20 -10 4 3 7 -3 6 -13 0 -9 4 -16 11 -15 6 2 14 -6
18 -16 8 -26 41 -62 49 -54 3 3 6 -1 6 -11 0 -9 4 -14 10 -11 5 3 10 0 10 -7
0 -7 9 -19 20 -26 11 -7 20 -20 20 -29 0 -9 3 -14 6 -10 8 8 44 -25 44 -40 0
-7 7 -13 15 -13 8 0 15 -4 15 -10 0 -15 42 -60 51 -54 4 2 6 -5 4 -16 -2 -11
1 -20 6 -20 13 0 59 -46 59 -60 0 -6 5 -8 10 -5 6 3 10 0 10 -7 0 -7 18 -33
40 -57 22 -24 40 -48 40 -53 0 -6 7 -8 15 -4 8 3 14 2 13 -2 -3 -14 37 -72 50
-72 7 0 10 -4 7 -10 -3 -5 3 -15 15 -22 11 -7 20 -18 20 -25 0 -7 5 -13 10
-13 6 0 10 -7 10 -16 0 -8 4 -12 10 -9 9 5 14 -7 11 -27 0 -4 8 -10 19 -13 11
-4 18 -10 15 -15 -3 -5 4 -14 15 -20 13 -7 19 -17 16 -26 -3 -9 -1 -12 4 -9 6
3 10 1 10 -5 0 -6 5 -8 12 -4 6 4 8 3 5 -3 -4 -6 7 -25 23 -43 17 -19 30 -37
30 -42 0 -4 7 -8 15 -8 8 0 12 -6 9 -14 -3 -7 2 -16 11 -20 10 -3 15 -12 12
-20 -3 -9 3 -16 15 -19 13 -4 19 -11 15 -20 -4 -10 2 -17 15 -20 14 -4 19 -11
15 -21 -6 -14 4 -21 25 -17 4 0 5 -5 2 -13 -3 -7 2 -16 11 -20 10 -4 15 -12
11 -22 -3 -8 -2 -12 4 -9 6 3 10 1 10 -5 0 -6 4 -9 9 -6 5 4 8 -5 7 -19 -2
-13 0 -22 4 -20 11 7 33 -23 25 -35 -3 -6 3 -10 15 -10 16 0 20 -4 16 -16 -4
-10 0 -18 13 -21 13 -3 18 -12 16 -24 -2 -11 -1 -18 3 -15 4 2 13 -2 20 -10 7
-8 9 -14 5 -14 -4 0 0 -7 11 -15 10 -7 15 -18 12 -23 -3 -5 4 -12 15 -15 12
-3 18 -10 15 -15 -3 -5 2 -18 12 -28 9 -11 18 -26 20 -34 2 -8 11 -19 19 -24
13 -7 13 -10 2 -17 -10 -6 -8 -9 10 -9 18 0 22 -4 18 -20 -5 -18 3 -25 26 -21
4 0 6 -2 6 -6 -4 -23 2 -43 11 -38 6 3 10 -3 10 -14 0 -11 9 -26 21 -34 14
-10 17 -17 9 -22 -8 -5 -6 -13 7 -26 36 -36 44 -49 37 -61 -4 -7 -3 -8 4 -4 7
4 14 -3 18 -19 3 -14 11 -22 17 -18 6 4 8 -2 4 -16 -4 -15 1 -24 15 -32 11 -6
17 -17 14 -24 -2 -7 2 -16 11 -19 9 -4 13 -14 10 -26 -3 -11 -1 -18 4 -14 5 3
9 -3 9 -13 0 -15 2 -16 10 -3 7 11 10 7 10 -17 0 -21 5 -32 12 -30 12 2 14 -4
17 -43 1 -13 6 -17 15 -14 11 4 14 -1 10 -20 -2 -15 0 -26 6 -26 6 0 8 -4 5
-10 -3 -5 1 -10 9 -10 9 0 13 -6 10 -15 -3 -8 2 -22 11 -31 9 -9 14 -25 12
-36 -3 -10 -2 -16 3 -13 4 3 14 -3 21 -12 12 -14 12 -16 -1 -8 -13 8 -13 6 -2
-8 8 -9 11 -21 7 -27 -3 -5 2 -10 12 -11 10 0 13 -3 6 -6 -10 -3 -9 -8 1 -19
8 -8 13 -23 11 -34 -2 -11 0 -20 6 -20 5 0 9 -7 9 -16 0 -8 4 -12 10 -9 5 3 9
-2 8 -12 -3 -35 2 -54 12 -48 6 4 10 -8 10 -30 0 -22 4 -34 10 -30 10 6 11 2
14 -45 1 -14 6 -31 10 -39 7 -10 5 -12 -5 -6 -12 8 -12 6 0 -8 7 -9 16 -15 20
-13 3 2 7 -24 8 -57 3 -80 6 -96 14 -91 12 7 14 -17 14 -148 0 -79 4 -128 10
-128 5 0 5 -4 -2 -8 -6 -4 -11 -23 -11 -42 2 -75 -3 -97 -22 -118 -12 -12 -17
-22 -12 -22 12 0 8 -35 -5 -52 -7 -7 -14 -27 -17 -43 -3 -15 -11 -32 -17 -36
-6 -4 -9 -11 -5 -17 6 -10 -21 -27 -37 -23 -4 1 -3 -8 3 -19 9 -17 8 -20 -10
-20 -12 0 -19 -4 -15 -9 3 -5 -4 -16 -15 -24 -11 -7 -17 -17 -13 -20 3 -4 -1
-7 -11 -7 -9 0 -14 -4 -11 -10 3 -5 -3 -10 -14 -10 -11 0 -27 -10 -35 -22 -9
-12 -16 -19 -16 -15 0 4 -6 2 -14 -5 -8 -7 -11 -17 -8 -23 3 -5 2 -7 -2 -3 -5
4 -24 -3 -44 -14 -63 -36 -137 -72 -144 -70 -5 1 -8 -2 -8 -8 0 -5 -6 -7 -14
-4 -8 3 -17 0 -21 -5 -3 -6 -11 -9 -16 -6 -5 4 -9 2 -9 -3 0 -5 -9 -12 -20
-15 -11 -3 -20 -1 -20 3 0 5 -17 0 -37 -10 -21 -10 -46 -16 -57 -14 -10 2 -28
-2 -40 -9 -26 -15 -68 -16 -78 -2 -5 7 -8 7 -8 0 0 -6 -12 -11 -27 -10 -16 0
-42 -4 -58 -10 -34 -11 -578 -12 -635 -1 -19 4 -40 12 -46 17 -8 7 -15 6 -19
-2 -6 -8 -10 -7 -16 2 -6 9 -9 10 -9 2 0 -11 -26 -10 -120 3 -46 7 -121 14
-142 15 -12 0 -15 6 -11 17 6 14 4 15 -9 4 -10 -8 -28 -10 -44 -7 -31 7 -52
10 -124 20 -24 3 -51 12 -59 18 -12 10 -13 9 -6 -3 6 -12 5 -12 -5 -3 -7 6
-19 9 -28 6 -11 -5 -13 -2 -7 8 6 11 5 11 -4 3 -13 -12 -50 -4 -95 18 -12 7
-16 6 -11 -1 9 -15 -1 -14 -34 4 -16 8 -31 12 -34 9 -3 -3 -21 -1 -39 5 -18 5
-44 12 -58 13 -14 2 -30 7 -37 11 -6 4 -30 8 -52 9 -23 1 -41 5 -41 10 0 4
-18 8 -40 8 -22 0 -40 4 -40 8 0 4 -17 9 -37 10 -21 2 -40 6 -43 10 -6 9 -28
14 -57 14 -13 0 -23 4 -23 9 0 5 -3 8 -7 8 -26 -4 -73 2 -69 9 3 5 -14 9 -37
11 -23 1 -43 6 -45 12 -2 5 -15 9 -28 9 -14 0 -34 5 -44 10 -10 6 -30 11 -44
12 -15 1 -26 5 -26 9 0 6 -11 8 -59 11 -17 1 -28 5 -25 10 3 4 -5 8 -17 8 -29
0 -102 22 -110 33 -3 5 -9 8 -13 8 -27 -4 -56 1 -52 8 3 5 0 9 -7 8 -34 -1
-58 4 -53 11 3 5 -5 8 -17 7 -12 -1 -31 2 -42 8 -11 6 -30 12 -41 13 -12 1
-36 10 -53 18 -23 13 -31 13 -31 4 0 -10 -2 -10 -8 -1 -4 6 -21 15 -37 19 -17
4 -34 9 -40 13 -5 3 -18 6 -28 6 -10 0 -21 5 -25 10 -4 6 -14 11 -22 12 -43 5
-162 47 -155 55 3 3 -6 4 -20 3 -14 -2 -25 2 -25 8 0 8 -3 7 -9 -1 -7 -11 -9
-10 -15 3 -3 9 -10 14 -15 11 -5 -3 -21 1 -37 9 -15 7 -31 12 -36 9 -4 -3 -8
-1 -8 4 0 5 -6 9 -12 9 -11 0 -137 41 -188 60 -8 4 -18 5 -22 5 -5 -1 -8 3 -8
9 0 6 -6 9 -14 6 -7 -3 -23 1 -34 8 -10 8 -22 11 -26 8 -3 -3 -6 -1 -6 5 0 6
-7 9 -15 6 -8 -4 -15 -1 -15 6 0 7 -6 10 -14 7 -7 -3 -18 -1 -22 3 -5 5 -19
11 -31 13 -13 2 -26 6 -29 10 -4 4 -16 7 -26 7 -10 0 -18 5 -18 11 0 5 -5 7
-10 4 -6 -3 -10 -2 -10 4 0 6 -7 8 -15 5 -8 -4 -15 -1 -15 7 0 7 -3 9 -7 6 -3
-4 -12 -2 -20 4 -7 6 -13 9 -13 5 0 -4 -13 0 -29 8 -16 9 -31 12 -35 9 -3 -4
-6 -1 -6 5 0 7 -9 12 -19 12 -11 0 -23 5 -26 10 -3 6 -17 10 -30 10 -13 0 -25
5 -27 10 -2 6 -17 13 -33 16 -17 3 -53 16 -81 30 -28 14 -61 26 -73 27 -11 1
-21 4 -21 8 0 4 -10 10 -22 14 -13 4 -26 8 -30 10 -5 1 -15 3 -24 4 -8 0 -13
5 -10 9 2 4 -7 9 -22 10 -14 1 -29 7 -33 13 -4 7 -11 9 -17 5 -5 -3 -15 1 -22
9 -7 8 -21 15 -31 15 -11 0 -19 4 -19 8 0 4 -10 8 -22 9 -11 1 -24 6 -27 10
-3 4 -15 10 -26 11 -11 2 -22 7 -25 10 -3 4 -14 9 -25 10 -11 2 -22 8 -23 13
-2 5 -7 7 -12 4 -5 -3 -16 3 -26 12 -10 10 -19 16 -21 14 -7 -7 -73 22 -73 32
0 5 -9 7 -20 4 -11 -3 -27 2 -35 10 -9 8 -21 16 -28 18 -34 9 -57 18 -57 24 0
4 -10 7 -22 8 -11 1 -24 7 -28 14 -4 6 -13 8 -19 5 -6 -4 -11 -2 -11 4 0 6 -4
8 -10 5 -5 -3 -10 -2 -10 4 0 6 -12 14 -27 17 -16 4 -37 13 -48 20 -11 7 -29
14 -40 16 -11 2 -27 10 -35 18 -8 8 -26 16 -40 18 -13 1 -28 8 -32 15 -4 6 -8
8 -8 3 0 -5 -6 -3 -13 3 -8 6 -17 8 -20 4 -4 -3 -7 -1 -7 5 0 6 -10 14 -22 17
-42 13 -133 57 -139 67 -4 6 -15 11 -25 12 -27 3 -104 39 -104 49 0 4 -4 6 -9
3 -5 -3 -14 1 -21 9 -7 8 -20 15 -29 15 -9 0 -26 7 -37 15 -12 8 -24 12 -26 9
-3 -2 -11 2 -17 10 -7 8 -20 12 -28 9 -11 -4 -14 -2 -9 5 5 8 0 12 -14 12 -11
0 -23 7 -26 15 -4 8 -9 13 -13 11 -3 -2 -24 4 -45 15 -22 10 -46 19 -53 19 -7
0 -13 3 -13 8 0 8 -49 32 -67 32 -7 0 -13 4 -13 9 0 8 -43 27 -64 29 -5 0 -12
4 -15 9 -10 13 -49 33 -66 33 -8 0 -15 5 -15 10 0 6 -7 10 -15 10 -9 0 -18 7
-21 15 -4 8 -10 13 -14 10 -11 -7 -60 15 -60 27 0 4 -3 7 -7 6 -10 -3 -107 45
-111 55 -2 4 -7 5 -12 2 -5 -3 -14 1 -22 8 -7 7 -32 21 -55 31 -24 11 -43 23
-43 28 0 4 -3 7 -7 6 -14 -4 -53 13 -53 22 0 5 -8 7 -17 3 -10 -3 -15 -3 -11
2 8 8 -90 61 -104 57 -5 -1 -8 3 -8 9 0 5 -4 7 -10 4 -5 -3 -10 -2 -10 2 0 5
-18 16 -40 26 -22 9 -40 21 -40 27 0 5 -3 9 -7 9 -15 -3 -73 23 -73 33 0 5 -4
7 -9 4 -5 -3 -14 1 -21 9 -7 8 -16 13 -20 10 -4 -3 -10 2 -14 10 -3 8 -12 12
-21 9 -8 -3 -15 -2 -15 3 0 5 -25 21 -55 37 -30 15 -57 32 -61 37 -3 5 -10 7
-15 4 -5 -4 -9 -1 -9 4 0 6 -7 11 -15 11 -8 0 -15 5 -15 10 0 6 -6 10 -14 10
-21 0 -67 26 -59 33 3 4 -3 7 -15 7 -12 0 -31 9 -42 20 -11 11 -20 17 -20 14
0 -4 -6 -1 -13 5 -8 6 -17 8 -20 4 -4 -3 -7 -1 -7 5 0 7 -7 12 -15 12 -8 0
-15 5 -15 10 0 6 -7 10 -15 10 -8 0 -15 5 -15 11 0 5 -5 7 -10 4 -6 -3 -13 1
-16 9 -3 9 -10 14 -14 11 -4 -3 -13 2 -20 10 -7 8 -20 15 -29 15 -10 0 -27 9
-39 20 -12 12 -22 18 -22 14 0 -4 -8 0 -18 9 -10 9 -34 23 -55 32 -20 8 -37
20 -37 26 0 5 -4 7 -10 4 -5 -3 -17 3 -27 14 -9 11 -20 18 -25 15 -4 -3 -8 0
-8 5 0 6 -7 11 -15 11 -7 0 -19 8 -24 18 -6 9 -11 13 -11 8 0 -5 -7 -3 -15 4
-8 7 -15 9 -15 4 0 -5 -4 -3 -9 4 -4 7 -17 15 -27 16 -10 2 -18 8 -17 14 2 6
-6 9 -17 7 -12 -2 -18 0 -15 4 5 9 -23 26 -37 23 -5 -1 -8 3 -8 10 0 6 -3 9
-6 6 -3 -3 -17 5 -31 18 -15 14 -33 22 -40 20 -7 -3 -13 -1 -13 4 0 5 -18 19
-40 31 -22 13 -40 27 -40 31 0 5 -4 7 -9 4 -5 -3 -14 1 -21 9 -7 8 -19 15 -26
15 -8 0 -14 5 -14 11 0 5 -4 7 -10 4 -5 -3 -10 -2 -10 4 0 6 -11 13 -25 17
-14 3 -25 10 -25 15 0 5 -7 9 -15 9 -8 0 -15 3 -15 8 0 4 -23 18 -50 31 -27
14 -47 28 -44 33 3 5 2 8 -3 7 -13 -4 -63 23 -63 33 0 5 -4 6 -10 3 -5 -3 -10
-1 -10 4 0 6 -4 11 -10 11 -10 0 -72 38 -107 67 -12 10 -25 16 -28 13 -4 -3
-11 3 -16 13 -6 9 -17 17 -24 17 -8 0 -15 5 -15 11 0 5 -5 7 -10 4 -6 -3 -10
-2 -10 4 0 6 -11 13 -25 17 -14 3 -22 11 -18 17 4 6 0 8 -10 4 -8 -3 -17 0
-20 6 -3 7 -17 19 -33 27 -16 8 -48 27 -71 42 -23 15 -47 28 -53 28 -6 0 -8 5
-4 12 5 7 2 9 -9 5 -8 -3 -18 0 -21 8 -3 8 -20 22 -38 31 -18 9 -36 22 -40 28
-4 6 -8 7 -8 2 0 -5 -8 0 -17 10 -10 11 -31 25 -46 32 -15 6 -33 16 -40 22
-59 48 -77 61 -77 54 0 -4 -7 1 -15 12 -8 10 -15 15 -15 10 0 -5 -8 1 -19 12
-10 12 -25 22 -32 22 -19 1 -50 25 -42 33 3 4 -3 7 -14 7 -11 0 -28 9 -38 20
-10 11 -20 18 -23 16 -4 -5 -18 5 -56 39 -12 11 -26 22 -31 25 -6 3 -9 8 -7
13 1 4 -4 7 -12 7 -8 0 -13 8 -11 18 2 9 4 25 4 35 1 10 4 16 9 14 4 -3 8 8 8
25 1 17 7 34 14 38 8 5 15 21 17 37 5 50 6 53 22 53 11 0 12 3 4 11 -8 8 -8
17 -2 28 14 25 32 75 30 84 -1 4 5 17 13 29 8 11 12 26 10 33 -3 7 -1 16 5 20
6 3 11 15 11 26 0 11 5 17 10 14 6 -4 9 -3 8 2 -4 16 13 84 20 79 4 -2 7 8 6
22 -1 15 7 39 17 53 10 14 16 29 13 32 -3 3 2 21 11 41 9 19 13 40 9 47 -4 8
-3 9 4 5 8 -5 12 2 12 18 0 14 4 26 9 26 4 0 8 8 8 18 0 35 3 43 14 36 7 -4
10 4 7 22 -2 20 1 28 10 26 8 -1 11 2 7 8 -3 5 -1 18 4 28 5 10 12 32 15 48 2
16 5 31 6 34 1 3 2 8 1 13 0 4 3 7 9 7 5 0 7 7 4 15 -4 8 -1 15 6 15 7 0 10 7
6 15 -3 9 3 24 13 34 11 11 16 23 13 27 -4 4 1 4 10 1 10 -3 20 -3 22 2 7 10
508 7 525 -4 9 -5 12 -4 7 3 -4 8 9 10 44 7 38 -3 49 -1 43 8 -5 9 -3 9 8 1 8
-7 25 -11 39 -10 14 1 31 -3 39 -8 11 -8 13 -8 8 1 -5 9 8 11 53 8 44 -2 58 0
53 8 -5 9 -3 9 8 0 8 -7 26 -9 39 -6 18 5 21 3 15 -8 -7 -11 -6 -12 6 -3 8 6
29 10 47 8 21 -1 30 1 26 8 -5 7 -2 8 7 2 8 -5 154 -10 324 -11 367 -3 327 -3
395 0 30 2 65 -1 78 -5 13 -4 21 -5 19 0 -6 8 256 8 270 -1 6 -4 13 -3 17 0 4
4 42 8 85 8 42 1 83 5 91 10 8 5 11 4 7 -2 -5 -7 6 -10 30 -8 37 4 79 -11 85
-30 2 -5 6 -9 9 -8 3 1 6 -4 6 -12 0 -8 -5 -11 -11 -8 -6 4 -4 -1 4 -12 8 -10
14 -20 13 -22 -8 -10 -2 -33 7 -28 8 5 13 -22 9 -51 0 -4 5 -10 13 -15 7 -5
13 -22 14 -38 0 -16 6 -37 14 -46 8 -10 16 -29 18 -43 2 -15 8 -29 13 -33 5
-3 11 -19 12 -35 1 -16 8 -34 15 -39 12 -10 19 -31 21 -63 1 -7 5 -11 10 -8 4
3 7 -5 6 -17 -1 -12 8 -36 20 -52 17 -23 20 -36 14 -53 -6 -15 -5 -21 1 -17 9
6 14 -8 11 -27 0 -5 4 -8 10 -8 6 0 9 -8 6 -19 -2 -11 3 -24 13 -31 10 -7 16
-18 14 -25 -3 -6 2 -24 10 -40 8 -16 13 -32 10 -37 -3 -4 0 -8 7 -8 6 0 9 -8
6 -20 -3 -12 0 -20 8 -20 7 0 13 -11 14 -25 3 -49 4 -55 15 -55 6 0 4 -5 -4
-10 -13 -8 -12 -10 4 -10 14 0 17 -6 13 -25 -2 -14 -2 -24 0 -21 3 3 11 -1 18
-7 10 -9 10 -15 1 -26 -9 -12 -8 -13 3 -6 11 6 13 4 8 -8 -4 -10 0 -20 11 -26
9 -6 13 -11 9 -11 -4 0 -3 -8 2 -18 7 -13 6 -23 -2 -32 -9 -10 -9 -11 0 -6 16
9 44 -54 31 -71 -6 -7 -4 -14 3 -19 8 -4 9 -3 5 4 -4 7 -3 12 3 12 16 0 25
-61 10 -72 -11 -8 -11 -9 1 -5 10 3 22 -6 33 -25 9 -16 12 -26 5 -22 -7 4 -8
3 -4 -4 4 -7 13 -12 21 -12 7 0 15 -5 17 -11 2 -6 24 -12 48 -13 25 -1 51 -5
58 -9 6 -5 12 -5 12 0 0 4 365 8 810 8 456 0 810 -4 810 -9 0 -5 6 -4 13 1 6
5 42 9 80 9 37 -1 67 1 67 5 0 3 11 11 23 18 25 14 26 17 30 101 1 33 -3 60
-11 68 -7 8 -10 17 -7 22 3 5 1 10 -4 12 -5 1 -11 14 -13 28 -1 14 -5 27 -9
30 -10 9 -39 77 -42 100 -2 12 -10 26 -17 30 -8 5 -11 12 -8 16 4 3 1 19 -8
35 -8 16 -11 29 -7 29 5 0 2 4 -4 8 -7 4 -14 17 -16 27 -2 11 -9 30 -15 43 -7
12 -10 22 -7 22 4 0 -3 16 -15 35 -12 19 -19 39 -16 44 4 5 0 15 -7 23 -8 7
-12 19 -9 26 2 6 -2 12 -8 12 -8 0 -11 10 -8 25 4 17 1 25 -8 25 -9 0 -14 11
-14 30 0 17 -5 30 -11 30 -5 0 -8 4 -4 9 3 6 0 13 -7 18 -7 4 -13 17 -13 28 0
12 -6 19 -14 17 -12 -3 -12 0 -1 12 9 12 9 16 1 16 -7 0 -11 6 -9 13 1 6 -6
27 -15 45 -12 22 -14 32 -5 32 6 0 3 6 -7 14 -18 13 -25 30 -28 71 -1 11 -8
24 -14 28 -7 4 -13 19 -13 32 0 14 -4 25 -10 25 -5 0 -10 8 -10 18 0 10 -6 24
-12 30 -10 10 -10 15 2 22 13 8 13 10 -1 10 -18 0 -29 20 -29 51 0 10 -4 19
-8 19 -5 0 -9 6 -10 13 -3 37 -8 53 -20 66 -7 7 -11 20 -8 28 3 8 2 12 -3 9
-5 -3 -14 15 -21 39 -7 25 -17 48 -21 51 -5 3 -9 14 -9 24 0 10 -6 25 -12 32
-7 7 -13 22 -13 33 1 11 -2 22 -6 25 -4 3 -9 14 -11 25 -1 11 -6 23 -10 26 -5
3 -9 17 -10 31 -1 15 -6 24 -10 22 -4 -3 -9 0 -9 5 -3 26 -4 30 -11 37 -4 4
-2 14 5 22 9 13 9 14 0 8 -8 -4 -13 -1 -13 8 0 9 -4 16 -8 16 -4 0 -8 8 -9 18
-1 9 -7 31 -14 47 -7 17 -13 35 -14 41 0 6 -6 18 -14 27 -7 9 -10 21 -6 27 3
5 1 10 -4 10 -6 0 -11 9 -11 20 0 11 -4 20 -8 20 -5 0 -9 6 -9 13 0 6 -8 29
-17 50 -9 20 -13 37 -9 37 5 0 2 4 -5 9 -7 4 -14 18 -15 29 -1 12 -6 22 -11
22 -5 0 -7 3 -3 6 3 4 0 19 -8 34 -8 15 -11 30 -8 34 4 3 1 6 -6 6 -7 0 -11 6
-8 14 3 8 -1 17 -10 20 -8 4 -13 12 -10 20 3 7 -1 25 -8 39 -7 14 -11 28 -7
31 3 3 1 6 -4 6 -5 0 -10 10 -11 21 -1 12 -8 29 -16 38 -8 9 -13 29 -11 45 1
15 0 25 -3 22 -9 -8 -34 14 -27 25 3 5 0 18 -6 29 -11 21 -21 54 -22 77 -1 7
-5 10 -9 8 -7 -5 -20 28 -22 60 -1 11 -7 19 -13 18 -7 -1 -10 12 -9 32 1 21
-4 36 -12 40 -8 2 -12 9 -8 14 3 5 1 12 -5 16 -6 4 -8 10 -5 15 3 4 -1 10 -9
13 -7 3 -14 16 -14 29 0 33 -19 78 -34 78 -9 0 -9 3 -1 11 13 13 6 42 -8 33
-9 -5 -12 9 -12 48 0 10 -4 15 -10 11 -5 -3 -8 0 -5 8 3 8 -1 20 -9 27 -7 8
-11 18 -8 23 4 5 1 9 -5 9 -6 0 -8 5 -5 10 3 6 2 10 -2 10 -5 0 -10 10 -10 22
-1 13 -7 24 -12 26 -5 2 -8 9 -5 17 3 7 1 16 -5 20 -6 3 -11 17 -11 31 0 14
-4 22 -10 19 -9 -6 -11 3 -14 58 -1 11 -9 24 -17 30 -9 7 -14 18 -12 25 3 6 0
12 -6 12 -6 0 -11 8 -11 18 0 10 -3 22 -7 26 -5 4 -8 11 -8 14 -1 25 -31 102
-40 102 -5 0 -4 4 4 9 11 7 9 10 -8 16 -18 5 -20 9 -10 21 9 11 8 14 -2 14
-11 0 -11 2 1 10 13 8 12 10 -2 10 -10 0 -17 3 -16 8 1 4 -3 17 -10 29 -7 12
-12 26 -11 30 3 20 -2 34 -10 28 -6 -3 -8 4 -6 15 2 12 -2 23 -10 27 -8 3 -13
9 -10 13 3 5 1 11 -4 15 -6 3 -8 12 -5 19 3 8 0 17 -5 21 -6 3 -9 11 -6 16 4
5 1 9 -4 9 -6 0 -11 11 -11 25 0 14 -4 25 -10 25 -5 0 -9 3 -8 8 1 4 -4 20
-10 35 -7 16 -12 35 -12 43 0 8 -3 13 -7 11 -5 -3 -9 6 -10 20 0 14 -5 28 -10
32 -7 6 -12 19 -17 47 -1 7 -8 19 -15 28 -7 9 -11 25 -8 36 3 11 1 20 -4 20
-5 0 -9 9 -9 21 0 11 -4 17 -10 14 -5 -3 -10 1 -10 9 0 8 -5 27 -12 43 -6 15
-10 32 -10 36 1 4 -4 10 -12 13 -8 3 -12 12 -9 20 3 8 0 20 -6 28 -7 8 -11 18
-10 22 4 22 -2 35 -12 28 -8 -5 -10 1 -7 19 3 16 0 31 -8 38 -8 6 -14 18 -14
25 0 8 -4 14 -9 14 -4 0 -7 11 -6 25 2 14 -1 23 -6 19 -8 -5 -13 9 -10 29 1 4
-5 20 -14 36 -8 16 -11 31 -8 35 4 3 1 6 -6 6 -7 0 -10 4 -7 9 4 5 1 11 -5 13
-6 2 -12 16 -12 31 -1 15 -6 27 -10 27 -5 0 -6 4 -2 9 3 5 0 15 -7 23 -7 7
-15 22 -16 33 -2 11 -8 24 -13 30 -5 5 -9 17 -9 27 0 10 -5 18 -12 18 -6 0 -8
3 -5 7 4 3 0 17 -9 31 -8 13 -13 26 -10 29 3 3 -3 22 -14 43 -14 28 -16 40 -7
49 9 9 7 13 -10 17 -12 3 -23 14 -26 25 -3 10 -1 17 4 13 5 -3 6 2 3 10 -3 9
-10 16 -14 16 -5 0 -12 20 -16 45 -3 25 -10 45 -14 45 -4 0 -14 20 -21 45 -7
25 -17 45 -22 45 -5 0 -7 9 -4 19 3 12 -1 22 -10 25 -8 3 -13 12 -10 19 2 6
-6 31 -19 54 -12 22 -20 43 -17 46 2 3 -1 16 -8 29 -7 12 -14 25 -14 28 -9 36
-19 60 -24 60 -4 0 -7 14 -6 30 1 17 -3 34 -8 37 -6 4 -7 1 -2 -8 6 -10 5 -11
-3 -4 -6 6 -13 23 -16 39 -3 16 -10 34 -16 40 -5 5 -10 23 -10 39 0 19 -4 26
-12 21 -8 -5 -9 -2 -5 9 3 10 2 17 -4 17 -6 0 -7 5 -4 10 3 6 0 10 -7 10 -9 0
-9 3 2 10 8 5 10 10 4 10 -13 0 -25 24 -30 60 -1 13 -8 26 -13 28 -6 2 -11 10
-11 18 0 8 -7 26 -16 39 -9 13 -14 30 -12 37 3 7 -2 19 -9 27 -8 7 -12 19 -9
27 3 7 1 14 -4 16 -4 2 -10 12 -12 23 -1 11 -6 23 -11 26 -4 3 -9 16 -12 28
-2 13 -10 30 -17 39 -10 12 -10 14 -1 8 9 -5 11 -2 7 8 -3 9 -10 16 -15 16 -5
0 -9 9 -9 19 0 11 -5 23 -10 26 -6 4 -8 10 -5 14 2 5 -2 17 -10 27 -8 10 -15
27 -15 37 0 9 -4 17 -8 17 -5 0 -8 13 -7 30 1 16 -2 27 -7 24 -4 -3 -8 -2 -9
3 -3 31 -12 61 -24 80 -9 13 -13 23 -10 23 4 0 -1 7 -10 16 -9 10 -15 25 -12
34 2 9 -4 28 -14 41 -10 13 -19 34 -19 46 0 12 -6 28 -13 35 -7 7 -12 25 -12
40 1 15 -3 24 -7 22 -4 -3 -8 2 -8 10 0 9 -4 16 -9 16 -6 0 -8 9 -6 20 2 11
-3 24 -13 30 -9 5 -14 10 -10 10 5 0 -1 23 -12 52 -10 28 -17 55 -15 59 3 4 1
9 -5 11 -6 2 -12 13 -14 25 -3 12 -9 30 -14 40 -6 11 -7 25 -1 35 7 12 5 15
-9 14 -11 -1 -16 5 -14 17 2 9 -2 17 -8 17 -5 0 -10 9 -10 20 0 11 -5 20 -10
20 -6 0 -9 3 -8 8 4 13 -23 53 -33 47 -5 -4 -9 -1 -9 5 0 6 -4 9 -9 6 -5 -4
-11 -1 -13 6 -6 17 -1575 19 -1626 2z m799 -2440 c7 -8 13 -28 14 -42 1 -15 4
-33 9 -40 7 -11 10 -23 23 -82 3 -14 10 -27 14 -30 5 -3 9 -21 11 -39 1 -18 6
-35 10 -37 5 -3 6 -9 3 -14 -3 -4 2 -13 10 -20 12 -10 13 -16 3 -28 -10 -13
-10 -14 0 -8 7 4 12 1 12 -8 0 -9 4 -16 9 -16 6 0 8 -9 6 -20 -2 -11 1 -20 6
-20 6 0 7 -5 3 -11 -3 -6 0 -15 7 -20 12 -7 11 -9 -1 -9 -13 0 -13 -1 0 -10 8
-5 15 -17 15 -27 1 -10 6 -28 13 -40 7 -13 10 -23 6 -23 -3 0 -1 -6 5 -14 6
-7 12 -25 13 -40 1 -14 8 -26 14 -26 6 0 10 -11 9 -25 -2 -14 1 -25 6 -25 6 0
7 -4 4 -10 -3 -5 -2 -10 4 -10 6 0 7 -7 4 -17 -5 -12 -3 -14 7 -8 9 5 11 4 6
-3 -4 -6 -1 -22 6 -34 6 -13 14 -34 16 -48 2 -13 8 -30 14 -37 6 -7 8 -20 4
-28 -3 -8 -1 -15 4 -15 6 0 10 -9 10 -20 0 -11 6 -20 13 -21 8 0 8 -2 -2 -6
-10 -4 -10 -7 -1 -13 6 -4 12 -13 13 -21 2 -8 6 -20 11 -27 4 -7 5 -16 2 -19
-3 -3 2 -12 12 -20 10 -9 11 -11 2 -7 -13 7 -13 5 -1 -9 7 -9 10 -17 6 -17 -4
0 0 -11 9 -25 9 -14 14 -25 10 -25 -4 0 0 -8 7 -17 8 -9 9 -14 2 -10 -6 4 -3
-11 8 -32 10 -22 19 -52 19 -66 0 -14 4 -24 9 -21 5 3 11 -7 14 -22 11 -57 17
-76 28 -83 7 -4 9 -14 6 -22 -3 -8 1 -24 9 -36 8 -12 12 -26 9 -31 -3 -6 -1
-10 5 -10 6 0 9 -4 5 -9 -3 -5 0 -13 6 -16 5 -4 8 -13 5 -21 -3 -8 0 -14 5
-14 7 0 9 -11 7 -25 -3 -13 -2 -22 2 -20 10 6 30 -41 30 -70 0 -13 5 -25 11
-27 6 -2 12 -16 12 -31 0 -15 3 -27 6 -27 4 0 14 -22 21 -50 7 -27 17 -50 21
-50 4 0 6 -14 5 -31 -1 -23 -5 -29 -18 -25 -10 2 -18 1 -18 -2 0 -4 -285 -7
-632 -6 l-633 0 -2 33 c-2 19 1 30 7 26 10 -6 14 7 11 33 -1 6 3 12 8 12 5 0
8 9 6 20 -2 11 3 27 11 35 9 8 13 15 10 15 -3 0 5 28 18 63 12 34 21 68 18 76
-3 8 0 11 7 7 7 -5 11 2 11 18 0 14 5 28 10 31 6 4 8 10 5 15 -3 5 0 14 7 22
7 7 13 22 13 33 0 11 6 26 15 33 13 12 13 12 0 6 -12 -6 -13 -5 -4 7 6 8 10
22 9 31 -2 10 2 16 8 15 7 -1 11 8 11 21 -1 12 3 22 7 22 5 0 9 11 9 24 0 14
4 27 9 30 9 6 25 64 22 84 -1 7 4 15 12 18 9 3 13 16 12 34 -1 17 2 28 8 27 6
-1 12 5 12 13 3 31 18 81 26 86 5 3 9 16 9 30 0 13 5 24 10 24 6 0 10 11 10
24 0 14 4 27 10 31 5 3 7 12 4 20 -4 8 1 17 9 21 9 3 13 13 9 26 -2 11 1 23 7
27 7 4 13 18 14 29 1 12 4 22 7 22 4 0 7 6 8 13 3 41 7 57 14 57 4 0 5 9 3 20
-2 11 0 18 4 15 8 -4 36 81 33 98 -1 4 4 10 12 13 8 3 12 13 8 26 -3 14 1 26
13 34 14 10 15 14 4 14 -12 0 -12 2 1 10 8 5 11 10 6 10 -5 0 -3 7 4 15 7 8
10 22 6 30 -3 9 -2 13 4 10 8 -5 15 18 8 28 -1 1 5 13 12 27 8 14 15 28 16 33
1 4 2 8 4 10 2 3 11 40 12 55 1 6 5 12 10 12 5 0 7 4 3 9 -3 5 -1 12 5 16 6 4
8 11 5 16 -4 5 -1 9 5 9 7 0 10 7 6 15 -3 8 -1 15 4 15 5 0 7 7 4 15 -4 8 -2
15 4 15 5 0 8 11 7 24 -4 29 25 95 41 96 6 0 17 -7 25 -16z"/>
<path d="M12538 17697 c-41 -10 -78 -27 -98 -47 -13 -13 -16 -46 -17 -195 -1
-99 -2 -182 -3 -185 -2 -3 -1 -9 0 -15 6 -26 2 -1604 -4 -1614 -4 -6 -4 -11 1
-11 9 0 8 -601 -1 -625 -3 -8 -2 -15 2 -15 8 0 7 -603 -2 -625 -3 -8 -2 -15 2
-15 8 0 7 -603 -2 -625 -3 -8 -2 -15 2 -15 11 0 9 -584 -3 -592 -7 -5 -7 -8 0
-8 6 0 9 -37 7 -97 -1 -54 -2 -111 -1 -128 1 -16 1 -70 0 -120 0 -49 0 -101 0
-115 0 -14 0 -50 0 -80 0 -30 0 -68 0 -85 1 -16 1 -70 0 -120 0 -49 0 -103 0
-120 1 -16 2 -66 3 -110 1 -44 -2 -86 -7 -92 -5 -7 -6 -13 -1 -13 11 0 12
-325 2 -335 -4 -4 -2 -15 4 -25 9 -14 8 -22 -3 -36 -8 -10 -9 -15 -3 -11 7 4
11 -10 11 -38 1 -31 -3 -43 -11 -38 -7 5 -7 2 1 -8 13 -16 12 -36 -1 -58 -6
-9 -5 -12 1 -8 6 4 10 -57 10 -168 0 -114 -4 -172 -10 -168 -6 4 -7 1 -1 -8
14 -21 14 -279 0 -279 -7 0 -8 -3 -1 -8 14 -9 14 -314 0 -324 -7 -5 -7 -8 0
-8 6 0 9 -17 9 -37 -1 -21 6 -51 14 -68 9 -16 15 -33 14 -37 -2 -9 47 -23 66
-20 6 2 12 -2 12 -9 0 -8 4 -8 13 -1 15 13 27 13 49 1 10 -6 19 -5 23 1 4 7
13 7 26 0 13 -8 19 -7 19 0 0 6 5 8 12 4 16 -10 228 -11 228 -1 0 5 5 5 12 1
15 -10 61 -10 76 0 7 4 12 2 12 -4 0 -7 6 -8 18 -1 13 7 23 6 30 -1 9 -9 12
-9 12 1 0 10 3 11 13 3 7 -6 19 -7 26 -3 7 5 28 5 46 1 21 -5 38 -3 44 3 8 8
11 7 11 -2 0 -7 5 -9 11 -5 16 9 99 11 99 1 0 -4 9 -3 20 3 11 6 20 7 20 3 0
-4 16 -8 35 -8 19 0 35 4 35 9 0 5 6 3 13 -3 8 -6 16 -8 20 -5 9 9 97 10 97 1
0 -4 9 -3 20 3 11 6 20 7 20 3 0 -4 16 -8 35 -8 19 0 35 4 35 9 0 5 6 3 13 -3
8 -6 17 -8 21 -4 7 8 122 7 135 -2 5 -3 12 -1 15 4 3 5 21 5 41 1 20 -4 38 -4
41 1 3 5 13 6 22 1 15 -7 124 -6 284 1 31 1 54 5 51 10 -2 4 3 7 12 7 11 0 15
5 11 16 -3 8 -2 12 4 9 10 -6 14 15 11 44 -2 7 2 10 9 6 9 -5 10 -1 5 15 -5
17 -4 21 5 15 9 -6 11 -4 5 5 -12 19 -14 82 -3 103 7 13 5 17 -9 18 -10 0 -13
3 -6 5 7 3 9 12 6 20 -4 10 0 13 13 8 18 -5 18 -5 1 6 -14 9 -16 15 -6 26 9
11 8 14 -2 14 -11 0 -11 2 1 10 10 6 11 10 3 10 -7 0 -13 5 -13 11 0 5 4 8 8
5 4 -2 8 6 8 19 0 18 -3 22 -13 14 -9 -8 -10 -5 -4 18 4 15 6 34 3 42 -3 9 0
11 9 6 8 -5 5 2 -6 15 -11 13 -15 20 -9 17 15 -9 27 20 12 29 -7 5 -8 2 -3 -7
5 -8 4 -11 -1 -6 -15 14 -10 91 6 105 12 9 12 12 1 10 -7 -2 -16 3 -19 11 -2
8 0 11 6 7 7 -4 8 4 1 26 -11 40 -11 40 0 34 4 -3 5 13 1 34 -4 22 -4 43 1 46
4 2 4 16 -1 29 -7 17 -6 25 1 25 8 0 7 5 -1 15 -7 8 -8 15 -3 15 11 0 11 29 0
47 -4 6 -1 14 5 16 10 4 9 8 -2 16 -13 9 -12 11 5 12 l20 0 -20 9 c-11 5 -15
9 -9 9 8 1 10 12 5 34 -8 37 -4 67 10 67 6 0 6 -8 -1 -19 -7 -14 -7 -22 2 -27
6 -4 8 -3 5 2 -3 6 -2 16 2 23 5 8 3 25 -5 40 -16 30 -19 54 -4 31 8 -12 10
-10 10 8 0 16 -4 21 -12 16 -10 -6 -10 -4 0 7 6 7 12 17 12 22 0 4 -6 5 -12 1
-9 -5 -9 -2 1 9 7 9 9 17 4 17 -16 0 -10 40 7 50 13 9 13 10 0 11 -8 1 -18 1
-21 1 -4 -1 -5 8 -2 19 4 14 8 17 13 9 5 -8 9 -7 13 4 4 9 1 15 -5 13 -6 -1
-13 4 -16 12 -2 8 0 11 6 7 6 -3 13 -2 17 4 6 9 -8 15 -29 11 -5 -1 -4 5 3 13
7 8 9 21 5 27 -5 8 -3 9 6 4 10 -6 12 -4 7 10 -4 9 -2 25 5 33 9 11 9 14 1 9
-20 -13 -26 13 -7 34 15 16 15 19 2 14 -9 -4 -19 -1 -24 6 -4 8 -3 10 4 5 7
-4 12 -1 12 9 0 10 5 13 12 9 7 -5 8 -3 3 6 -12 20 -15 83 -4 97 7 7 6 14 -2
19 -8 5 -9 3 -4 -6 5 -9 4 -11 -4 -6 -6 4 -8 13 -4 19 11 18 11 57 0 57 -6 0
-2 6 8 14 18 13 18 13 -1 24 -10 6 -14 12 -8 12 6 0 9 15 8 35 -2 26 0 34 9
28 9 -5 9 -3 1 8 -12 15 -16 72 -5 65 4 -3 7 4 7 14 0 12 -5 16 -16 12 -13 -5
-13 -3 -1 11 7 9 10 17 5 17 -5 0 -2 5 6 10 10 6 11 10 3 10 -7 0 -13 7 -13
16 0 9 5 12 12 8 8 -5 8 -3 2 7 -12 20 -12 59 1 59 6 0 5 3 -2 8 -6 4 -11 22
-11 39 1 19 5 30 11 26 6 -4 7 -1 1 8 -5 8 -9 91 -10 185 0 94 -4 176 -8 182
-4 7 -1 12 6 12 10 0 10 2 0 9 -19 12 -19 15 -2 36 11 14 12 19 3 22 -10 4
-10 7 0 17 9 8 123 11 447 11 239 -1 440 1 445 4 6 3 37 7 71 8 33 0 78 5 100
9 21 4 67 8 100 8 37 1 60 5 58 11 -3 6 16 10 46 10 27 -1 50 2 50 5 0 3 12 7
28 8 15 1 38 4 52 7 14 3 40 8 58 10 18 3 42 9 51 15 10 5 21 6 25 3 3 -3 6
-2 6 3 0 6 14 9 30 8 17 -1 30 1 30 5 0 4 10 7 22 8 11 1 24 7 28 14 6 8 9 8
13 -2 4 -10 6 -10 6 -1 1 7 15 12 36 12 19 0 35 4 35 9 0 4 10 8 23 7 12 0 23
3 24 8 3 16 25 24 54 21 18 -3 28 0 26 8 -1 7 8 11 26 9 19 -3 27 1 27 12 0
10 6 13 15 10 8 -4 15 -1 15 7 0 7 3 10 6 6 4 -3 19 0 35 8 15 8 36 17 46 18
34 7 53 19 46 30 -3 6 -1 7 5 3 13 -8 96 27 86 36 -3 4 6 5 20 4 14 -2 24 2
23 7 -1 6 3 12 8 12 22 3 64 28 59 36 -3 5 2 9 12 9 9 0 23 8 31 18 8 10 11
11 7 2 -7 -13 -6 -13 11 0 10 8 20 14 22 12 3 -2 8 0 11 4 4 4 1 4 -7 -1 -10
-6 -12 -4 -7 4 5 7 15 10 23 7 8 -3 12 -2 9 3 -3 5 2 15 11 22 12 10 14 10 9
2 -12 -20 1 -15 30 12 14 13 30 22 35 19 5 -3 9 3 9 12 0 10 3 15 6 12 3 -4
14 1 23 10 35 33 61 52 72 52 5 0 7 5 4 10 -3 6 -1 10 6 10 7 0 24 11 38 24
86 80 127 116 134 116 5 0 5 5 2 11 -4 6 2 13 14 16 12 3 21 12 21 19 0 8 7
17 16 21 8 3 13 12 10 19 -3 8 -1 13 5 11 6 -1 16 7 22 18 7 11 18 24 25 28 7
5 9 13 6 19 -5 7 -1 9 9 5 13 -5 17 -1 17 19 0 14 4 23 9 19 5 -3 13 4 16 16
4 12 12 18 20 15 9 -3 12 0 8 10 -3 7 0 14 6 14 6 0 11 7 11 15 0 8 4 15 10
15 5 0 9 3 9 8 -3 19 2 33 11 27 6 -4 10 5 10 20 0 20 4 26 16 21 9 -3 12 -2
9 5 -4 5 -1 16 5 24 7 8 9 15 4 15 -5 0 -2 5 6 10 8 5 16 14 16 20 1 5 2 15 3
21 0 5 6 7 11 4 6 -3 10 4 10 18 0 14 7 30 15 37 8 7 12 16 9 21 -3 5 -1 9 5
9 6 0 8 7 5 15 -4 9 -1 15 8 15 8 0 14 12 15 32 0 17 7 36 15 42 7 6 13 21 12
33 -1 12 4 21 10 20 6 -1 10 6 8 16 -2 9 1 17 6 17 5 0 8 16 5 35 -2 24 0 34
9 33 13 -3 15 3 17 53 0 17 5 28 11 24 12 -7 12 -6 15 70 1 33 7 61 14 63 6 2
9 8 5 13 -3 5 -1 9 4 9 5 0 8 22 7 49 -2 36 2 51 13 56 9 3 13 15 10 35 -3 17
-2 30 1 30 3 0 5 84 5 187 -1 125 2 193 10 202 8 11 8 13 -1 7 -16 -9 -15 42
1 63 8 11 8 13 0 8 -8 -5 -11 40 -10 164 0 94 -3 173 -8 176 -4 3 -3 9 4 13 9
5 8 11 -2 21 -18 20 -21 35 -22 110 0 49 -3 66 -13 62 -8 -3 -11 2 -8 16 2 12
0 21 -5 21 -9 0 -7 41 4 58 3 6 2 13 -4 17 -5 3 -10 15 -10 26 0 11 -4 17 -10
14 -6 -4 -10 10 -10 34 0 22 -5 43 -10 46 -6 4 -8 11 -5 16 4 5 2 9 -3 9 -5 0
-12 9 -15 20 -3 11 -1 18 3 15 5 -3 7 5 4 17 -3 13 -6 28 -6 35 -1 7 -6 11
-11 10 -5 -1 -12 4 -15 12 -2 8 0 11 6 7 6 -4 6 3 -1 18 -7 13 -15 22 -19 20
-8 -5 -13 35 -9 65 2 7 -2 10 -7 7 -5 -3 -16 2 -23 11 -11 13 -11 15 -1 9 11
-7 11 -4 0 13 -7 12 -16 21 -19 21 -4 0 -6 13 -5 29 1 20 -2 27 -11 24 -8 -3
-13 3 -13 16 0 12 -9 29 -20 38 -16 14 -17 20 -7 32 9 12 9 13 0 7 -8 -4 -13
-1 -13 8 0 9 -6 15 -12 13 -8 -1 -12 6 -10 17 2 13 -1 17 -11 13 -10 -4 -13 1
-11 19 1 14 -3 24 -11 24 -7 0 -16 7 -19 16 -4 10 -2 13 7 8 8 -6 8 -3 -1 9
-8 9 -19 15 -25 14 -6 -1 -11 5 -12 13 0 8 -4 17 -10 19 -5 3 -19 22 -29 43
-11 21 -26 38 -33 38 -8 0 -11 4 -8 10 3 5 -3 15 -15 22 -11 7 -20 19 -20 26
0 7 -4 11 -9 7 -6 -3 -15 5 -22 17 -17 32 -35 48 -44 40 -5 -4 -5 1 -2 11 4
11 1 17 -9 17 -8 0 -17 7 -20 15 -4 8 -11 15 -16 15 -6 0 -21 12 -34 28 -13
15 -24 23 -24 19 0 -4 -11 4 -25 19 -14 15 -25 24 -25 21 0 -4 -14 8 -31 26
-17 17 -34 32 -37 32 -4 0 -6 4 -4 9 2 5 -5 3 -14 -5 -10 -8 -15 -9 -11 -3 3
6 -11 21 -33 35 -22 13 -40 28 -40 32 0 5 -4 6 -9 3 -5 -3 -11 1 -15 9 -3 8
-12 15 -21 15 -8 0 -15 5 -15 10 0 6 -7 10 -15 10 -8 0 -15 4 -15 9 0 9 -58
35 -72 32 -5 0 -8 4 -8 9 0 6 -7 10 -15 10 -8 0 -15 4 -15 9 0 5 -13 11 -29
14 -16 3 -36 13 -44 22 -9 8 -22 15 -31 15 -8 0 -18 5 -21 10 -3 6 -17 10 -30
10 -13 0 -25 4 -27 10 -1 5 -15 11 -30 12 -15 1 -25 5 -23 9 5 7 -63 29 -89
29 -9 0 -16 5 -16 10 0 6 -13 10 -30 10 -16 0 -30 5 -30 11 0 6 -9 9 -20 6
-11 -3 -23 -1 -26 4 -3 5 -10 7 -15 4 -5 -4 -9 -2 -9 4 0 5 -8 10 -17 10 -39
1 -53 5 -53 13 0 4 -13 8 -30 8 -16 0 -30 3 -30 8 0 4 -21 8 -47 10 -26 2 -50
7 -53 11 -3 4 -18 7 -35 6 -16 -1 -36 3 -43 9 -8 5 -36 10 -62 11 -27 1 -55 7
-64 14 -12 10 -16 10 -16 2 0 -7 -5 -9 -11 -6 -12 8 -44 12 -111 16 -27 1 -48
5 -48 9 0 3 -48 6 -107 7 -154 2 -177 5 -185 17 -5 8 -8 7 -8 -1 0 -7 -7 -13
-15 -13 -8 0 -15 5 -15 10 0 7 -6 8 -17 2 -9 -6 -29 -6 -45 -2 -15 5 -30 5
-33 0 -3 -5 -11 -7 -18 -5 -32 11 -88 14 -82 5 3 -5 0 -7 -8 -4 -23 8 -156 11
-151 2 3 -4 -5 -4 -18 1 -13 4 -32 5 -43 1 -11 -4 -23 -6 -28 -3 -14 8 -117 9
-117 0 0 -4 -8 -4 -17 2 -10 5 -26 5 -40 0 -15 -5 -23 -5 -23 2 0 6 -7 6 -20
-1 -11 -6 -20 -7 -20 -3 0 10 -122 9 -138 -1 -7 -4 -12 -4 -12 1 0 10 -1739
11 -1782 0z m2627 -1669 c74 -13 141 -22 148 -20 4 1 7 -2 7 -6 0 -4 11 -8 24
-8 36 0 206 -66 199 -78 -4 -5 0 -7 10 -3 9 3 18 0 21 -9 3 -8 12 -14 21 -14
8 0 15 -4 15 -10 0 -5 5 -10 10 -10 6 0 26 -16 46 -35 19 -19 32 -35 29 -35
-3 0 3 -8 13 -18 9 -11 20 -17 25 -15 4 3 6 1 5 -4 -4 -14 13 -53 23 -53 5 0
9 -9 9 -20 0 -11 5 -20 10 -20 6 0 10 -9 10 -20 0 -11 4 -20 9 -20 5 0 8 -11
7 -25 -2 -13 1 -23 7 -22 5 1 11 -16 12 -38 2 -22 8 -52 14 -67 6 -16 8 -28 5
-28 -4 0 0 -8 7 -17 8 -10 9 -14 2 -10 -6 4 -14 3 -18 -3 -3 -5 0 -10 7 -10 9
0 13 -19 13 -70 0 -38 -3 -70 -7 -70 -3 0 -5 -11 -3 -25 1 -14 -1 -28 -6 -31
-4 -2 -5 -12 -2 -21 4 -9 2 -14 -3 -11 -5 4 -9 -13 -9 -39 1 -33 -4 -47 -17
-54 -14 -8 -16 -14 -9 -28 7 -12 6 -22 -2 -30 -7 -7 -12 -15 -12 -19 -1 -16
-38 -82 -46 -82 -5 0 -9 -7 -9 -15 0 -8 -5 -15 -12 -15 -6 0 -8 -3 -5 -7 4 -3
-9 -19 -28 -36 -19 -16 -32 -33 -29 -38 3 -5 0 -9 -6 -9 -6 0 -17 -6 -24 -12
-8 -7 -24 -20 -36 -28 -12 -8 -32 -22 -44 -31 -20 -16 -134 -72 -148 -73 -3
-1 -10 -4 -14 -8 -4 -5 -18 -8 -31 -8 -13 0 -23 -4 -23 -9 0 -6 -8 -10 -17 -9
-10 0 -45 -5 -77 -12 -32 -6 -67 -9 -77 -7 -11 3 -17 1 -13 -4 3 -5 -1 -10 -8
-10 -63 -7 -146 -10 -345 -12 -127 -1 -235 -5 -239 -9 -3 -4 -14 -3 -24 2 -10
5 -20 6 -24 2 -4 -3 -41 -7 -82 -7 -68 -1 -74 0 -74 19 0 16 -3 18 -9 7 -12
-18 -20 40 -10 68 5 11 4 23 -2 26 -5 4 -6 12 -2 18 4 6 6 28 4 47 -8 86 -8
99 2 93 7 -4 8 1 3 13 -13 32 -15 55 -5 49 5 -4 9 -2 9 4 0 5 -5 13 -10 16 -8
5 -7 11 1 21 9 11 8 14 -2 14 -11 0 -11 2 1 10 11 7 11 10 2 10 -7 0 -10 4 -7
10 9 15 10 104 1 118 -4 7 -2 12 5 12 8 0 8 4 -1 15 -10 12 -10 15 1 15 10 0
10 3 1 12 -9 9 -9 15 1 27 9 12 9 13 0 7 -7 -4 -13 -3 -13 1 0 5 6 15 13 22 6
8 7 11 1 8 -7 -4 -10 8 -10 33 1 22 5 40 9 40 5 0 5 5 1 12 -10 16 -11 166 -2
195 4 12 3 25 -3 28 -5 4 -6 12 -2 18 11 18 12 38 2 31 -5 -3 -9 0 -9 5 0 6 5
11 11 11 5 0 7 5 3 11 -11 18 -10 179 1 179 6 0 3 5 -5 10 -10 6 -11 10 -3 10
9 0 10 7 3 26 -6 14 -6 23 -1 20 10 -7 9 20 -2 30 -4 4 1 13 11 21 9 8 11 12
5 8 -7 -3 -13 0 -14 7 0 7 -2 26 -3 42 -1 16 4 34 11 41 6 7 9 15 6 18 -7 7
779 2 822 -5z"/>
<path d="M22515 14360 c3 -5 8 -10 11 -10 2 0 4 5 4 10 0 6 -5 10 -11 10 -5 0
-7 -4 -4 -10z"/>
<path d="M23356 13025 c4 -8 11 -15 16 -15 6 0 5 6 -2 15 -7 8 -14 15 -16 15
-2 0 -1 -7 2 -15z"/>
<path d="M18820 12349 c0 -5 5 -7 10 -4 6 3 10 8 10 11 0 2 -4 4 -10 4 -5 0
-10 -5 -10 -11z"/>
<path d="M21290 12265 c-7 -9 -10 -18 -7 -21 3 -3 10 4 17 15 13 25 8 27 -10
6z"/>
<path d="M18649 12163 c-13 -16 -12 -17 4 -4 16 13 21 21 13 21 -2 0 -10 -8
-17 -17z"/>
</g>
</svg>
